<?xml version="1.0" standalone="no"?><!DOCTYPE svg PUBLIC "-//W3C//DTD SVG 1.1//EN" "http://www.w3.org/Graphics/SVG/1.1/DTD/svg11.dtd"><svg width="100%" height="100%" viewBox="0 0 506 75" version="1.1" xmlns="http://www.w3.org/2000/svg" xmlns:xlink="http://www.w3.org/1999/xlink" xml:space="preserve" style="fill-rule:evenodd;clip-rule:evenodd;stroke-linejoin:round;stroke-miterlimit:1.41421;"><g><path d="M15.825,52.125c0.15,5.85 4.5,9.525 11.175,9.525c6.3,0 10.95,-3.675 10.95,-8.925c0,-5.1 -2.925,-7.95 -11.1,-10.5c-11.7,-3.675 -13.65,-4.65 -17.175,-7.5c-4.125,-3.75 -6.825,-9.225 -6.825,-14.55c0,-11.025 10.8,-20.175 24,-20.175c7.2,0 14.25,2.85 18.9,7.725c3.375,3.6 5.025,7.125 5.25,12.375l-15.6,0c-0.45,-4.875 -3.9,-7.875 -9,-7.875c-5.1,0 -8.4,2.775 -8.4,7.2c0,2.25 1.125,4.275 3.15,5.625c2.1,1.5 3.75,2.1 10.5,4.275c7.2,2.1 10.575,3.675 14.025,6.6c4.95,4.125 7.35,9 7.35,15c0,6.375 -2.4,11.55 -7.425,15.9c-5.25,4.425 -12.075,6.975 -18.975,6.975c-8.25,0 -16.425,-3.375 -21.3,-8.7c-3.525,-4.05 -5.025,-7.65 -5.325,-13.05l15.825,0l0,0.075Z" style="fill:#5f5f5f;fill-rule:nonzero;"/><path d="M71.925,51.45c1.65,6.375 7.575,11.025 13.8,11.025c5.025,0 8.7,-2.25 11.475,-6.9l13.65,0c-3.15,10.8 -13.65,18.675 -24.75,18.675c-15.075,0 -27.15,-12.6 -27.15,-28.425c-0.075,-15.9 12.075,-28.8 27.075,-28.8c14.55,0 26.625,12.75 26.625,27.975c0,2.025 -0.225,3.525 -0.75,6.45l-39.975,0l0,0ZM100.575,41.175c-1.725,-7.65 -7.275,-12.375 -14.475,-12.375c-7.05,0 -12.9,5.025 -14.55,12.375l29.025,0Z" style="fill:#5f5f5f;fill-rule:nonzero;"/><path d="M131.25,51.45c1.65,6.375 7.575,11.025 13.8,11.025c5.025,0 8.7,-2.25 11.475,-6.9l13.65,0c-3.15,10.8 -13.65,18.675 -24.825,18.675c-15.075,0 -27.15,-12.6 -27.15,-28.425c0,-15.9 12.075,-28.875 27.15,-28.875c14.55,0 26.625,12.75 26.625,27.975c0,2.025 -0.225,3.525 -0.75,6.45l-39.975,0l0,0.075ZM159.9,41.175c-1.725,-7.65 -7.275,-12.375 -14.475,-12.375c-7.05,0 -12.9,5.025 -14.55,12.375l29.025,0Z" style="fill:#5f5f5f;fill-rule:nonzero;"/></g><g><path d="M245.175,52.725c-5.1,12.6 -17.925,21.075 -31.725,21.075c-19.575,0 -35.775,-16.875 -35.775,-37.2c0,-20.025 15.975,-36.6 35.55,-36.6c8.325,0 16.05,2.85 22.5,8.25c4.95,4.125 7.275,7.35 9.825,13.35l-14.475,0c-5.25,-6.225 -11.4,-9.3 -18.45,-9.3c-12,0 -22.35,11.25 -22.35,24.525c0,13.275 10.575,24.675 22.875,24.675c6.525,0 11.4,-2.475 17.175,-8.775l14.85,0Z" style="fill:#f98d00;fill-rule:nonzero;"/><rect x="251.25" y="1.425" width="12.375" height="71.025" style="fill:#f98d00;fill-rule:nonzero;"/><path d="M269.475,1.425l12.375,0l0,11.775l-12.375,0l0,-11.775ZM269.475,19.125l12.375,0l0,53.325l-12.375,0l0,-53.325Z" style="fill:#f98d00;fill-rule:nonzero;"/><path d="M340.8,55.05c-2.025,5.925 -4.425,9.525 -8.475,12.9c-4.575,3.9 -11.175,6.225 -17.175,6.225c-15.075,0 -27.45,-12.9 -27.45,-28.725c0,-15.45 12.3,-28.2 27.375,-28.2c6.975,0 13.65,2.775 18.75,7.725c3.6,3.375 5.325,6.225 7.05,11.775l-13.95,0c-3.075,-5.625 -6.525,-7.875 -11.85,-7.875c-8.7,0 -14.925,7.125 -14.925,16.725c0,9.675 6.525,16.725 15.45,16.725c4.575,0 8.475,-2.55 11.4,-7.425l13.8,0l0,0.15Z" style="fill:#f98d00;fill-rule:nonzero;"/><path d="M346.425,1.425l12.375,0l0,42.825l16.575,-25.125l14.25,0l-18.525,26.1l20.925,27.225l-15.6,0l-17.625,-24.9l0,24.9l-12.375,0l0,-71.025Z" style="fill:#f98d00;fill-rule:nonzero;"/></g><g><path d="M397.725,1.425l34.95,0l0,12.3l-22.2,0l0,17.25l21.225,0l0,12.3l-21.225,0l0,29.175l-12.675,0l0,-71.025l-0.075,0Z" style="fill:#0b99cb;fill-rule:nonzero;"/><path d="M438.15,1.425l12.375,0l0,11.775l-12.375,0l0,-11.775ZM438.15,19.125l12.375,0l0,53.325l-12.375,0l0,-53.325Z" style="fill:#0b99cb;fill-rule:nonzero;"/><path d="M472.35,44.925l-15.975,-25.8l13.8,0l9.45,16.125l9.45,-16.125l13.8,0l-15.975,25.8l18.525,27.6l-14.775,0l-11.025,-18.225l-10.875,18.225l-14.775,0l18.375,-27.6Z" style="fill:#0b99cb;fill-rule:nonzero;"/></g></svg>