<?xml version="1.0" standalone="no"?><!DOCTYPE svg PUBLIC "-//W3C//DTD SVG 1.1//EN" "http://www.w3.org/Graphics/SVG/1.1/DTD/svg11.dtd"><svg width="100%" height="100%" viewBox="0 0 169 45" version="1.1" xmlns="http://www.w3.org/2000/svg" xmlns:xlink="http://www.w3.org/1999/xlink" xml:space="preserve" style="fill-rule:evenodd;clip-rule:evenodd;stroke-linejoin:round;stroke-miterlimit:1.41421;"><g id="Page-1"><g id="Group-3"><path id="Fill-1" d="M40.055,29.814c-0.983,2.321 -2.389,4.407 -4.179,6.198c-1.792,1.791 -3.877,3.197 -6.198,4.179c-2.404,1.017 -4.957,1.532 -7.59,1.532c-2.633,0 -5.186,-0.515 -7.59,-1.532c-2.321,-0.982 -4.406,-2.388 -6.198,-4.179c-1.791,-1.791 -3.197,-3.877 -4.179,-6.198c-1.016,-2.403 -1.532,-4.957 -1.532,-7.59c0,-2.633 0.516,-5.186 1.532,-7.589c0.982,-2.322 2.388,-4.407 4.179,-6.198c1.792,-1.791 3.877,-3.198 6.198,-4.18c2.404,-1.016 4.957,-1.532 7.59,-1.532c2.633,0 5.186,0.516 7.59,1.532c2.321,0.982 4.406,2.389 6.198,4.18c1.79,1.791 3.196,3.876 4.179,6.198c1.016,2.403 1.531,4.956 1.531,7.589c0,2.633 -0.515,5.187 -1.531,7.59M42.44,13.626c-1.113,-2.63 -2.705,-4.992 -4.734,-7.02c-2.028,-2.028 -4.39,-3.621 -7.02,-4.733c-2.724,-1.152 -5.617,-1.736 -8.598,-1.736c-2.981,0 -5.874,0.584 -8.598,1.736c-2.63,1.112 -4.992,2.705 -7.021,4.733c-2.028,2.028 -3.62,4.39 -4.733,7.02c-1.152,2.724 -1.736,5.617 -1.736,8.598c0,2.982 0.584,5.875 1.736,8.598c1.113,2.631 2.705,4.993 4.733,7.02c2.029,2.029 4.391,3.622 7.021,4.734c2.724,1.152 5.617,1.736 8.598,1.736c2.981,0 5.874,-0.584 8.598,-1.736c2.63,-1.112 4.992,-2.705 7.02,-4.734c2.029,-2.027 3.621,-4.389 4.734,-7.02c1.152,-2.723 1.736,-5.616 1.736,-8.598c0,-2.981 -0.584,-5.874 -1.736,-8.598" style="fill:#000;"/></g><path id="Fill-4" d="M33.226,26.208c-0.007,0.251 -0.215,0.419 -0.391,0.516c-0.131,0.072 -0.295,-0.004 -0.327,-0.15c-0.064,-0.297 -0.077,-0.812 0.383,-1.32c0,0 0.347,0.516 0.335,0.954ZM31.056,20.037l-0.805,-0.551c-0.48,-0.345 -0.876,-0.8 -1.124,-1.335c-0.342,-0.732 -0.063,-1.806 1.18,-1.587c0,0 0.712,1.593 1.059,3.266c0.036,0.177 -0.161,0.309 -0.31,0.207ZM32.2,16.707l-0.143,-0.513c0.581,0.1 1.148,0.279 1.484,0.398l0.292,0.127c-0.005,-0.008 -0.01,-0.017 -0.015,-0.025c0.023,0.008 0.035,0.013 0.035,0.013c-0.162,-0.276 -0.335,-0.544 -0.517,-0.806c-1.727,-2.617 -4.392,-4.543 -7.507,-5.284c-0.61,-1.497 -1.919,-2.504 -2.45,-2.867c-0.075,-0.051 -0.174,0.021 -0.148,0.108c0.32,1.096 0.2,2.255 0.186,2.381c-0.552,-0.064 -1.112,-0.097 -1.681,-0.097c-4.279,0 -8.126,1.845 -10.79,4.783c-0.45,0.459 -0.864,0.973 -1.229,1.554c-0.089,0.131 -0.177,0.264 -0.263,0.398l0.022,0.006c0.982,-0.695 1.965,-1.041 4.057,-1.245c0.002,0.007 0.002,0.006 0.004,0.013c-1.042,0.635 -4.898,3.414 -5.177,8.684c0.536,-0.822 1.502,-1.914 2.856,-2.444l-0.014,0.225l-0.023,-0.118c-0.557,1.393 -2.035,5.644 0.322,9.916c0.067,-1.11 0.277,-2.745 0.875,-4.443l-0.427,0l0,0.63c1.699,4.093 6.35,6.532 11.19,6.532c2.254,0 4.567,-0.37 6.377,-2.068l0.003,0c-4.593,0 -8.525,-3.345 -8.525,-7.94c0,-2.177 1.144,-3.878 1.993,-5.362l0,0.131c0,2.278 2.059,4.151 4.338,4.151c0.169,0 0.442,0.004 0.605,-0.016c0.088,-0.011 0.226,0.035 0.275,0.108l2.222,3.07c0.751,1.023 2.281,1.613 3.19,0.764l0.007,0c0.91,0 0.764,-0.65 0.658,-1.123l-2.082,-9.641Z" style="fill:#000;"/><path id="Fill-6" d="M29.26,11.146c-0.411,-1.188 -1.172,-2.104 -1.528,-2.488c-0.061,-0.067 -0.173,-0.019 -0.168,0.072c0.035,0.59 -0.05,1.17 -0.145,1.609c0.638,0.22 1.253,0.491 1.841,0.807" style="fill:#fff;"/><path id="Fill-8" d="M64.861,20.926c0.056,0.13 -0.019,0.26 -0.167,0.335c-1.081,0.671 -2.536,1.081 -3.914,1.081c-3.84,0 -6.412,-2.684 -6.412,-6.709c0,-4.027 2.572,-6.71 6.412,-6.71c1.378,0 2.833,0.41 3.914,1.08c0.148,0.075 0.223,0.206 0.167,0.337l-1.23,2.59c-0.075,0.168 -0.205,0.223 -0.354,0.149c-0.69,-0.391 -1.36,-0.522 -2.162,-0.522c-1.678,0 -2.796,1.231 -2.796,3.076c0,1.845 1.118,3.075 2.796,3.075c0.802,0 1.472,-0.131 2.162,-0.522c0.149,-0.075 0.279,-0.019 0.354,0.149l1.23,2.591Z" style="fill:#000;"/><path id="Fill-10" d="M77.608,9.203c0.168,0 0.28,0.13 0.28,0.279l0,12.32c0,0.13 -0.112,0.26 -0.28,0.26l-3.485,0c-0.149,0 -0.261,-0.13 -0.261,-0.26l0,-4.175l-2.609,0l0,4.175c0,0.13 -0.112,0.26 -0.28,0.26l-3.485,0c-0.13,0 -0.261,-0.13 -0.261,-0.26l0,-12.32c0,-0.149 0.131,-0.279 0.261,-0.279l3.485,0c0.168,0 0.28,0.13 0.28,0.279l0,4.865l2.609,0l0,-4.865c0,-0.149 0.112,-0.279 0.261,-0.279l3.485,0Z" style="fill:#000;"/><path id="Fill-12" d="M89.462,18.708c0.148,0 0.279,0.112 0.279,0.242l0,2.852c0,0.131 -0.131,0.261 -0.279,0.261l-8.667,0c-0.13,0 -0.261,-0.149 -0.298,-0.28l0,-12.32c0,-0.167 0.093,-0.26 0.261,-0.26l8.48,0c0.168,0 0.298,0.13 0.298,0.26l0,2.815c0,0.167 -0.13,0.279 -0.298,0.279l-4.865,0l0,1.473l3.952,0c0.167,0 0.26,0.13 0.242,0.242l-0.261,2.61c-0.019,0.111 -0.149,0.242 -0.317,0.242l-3.616,0l0,1.584l5.089,0Z" style="fill:#000;"/><path id="Fill-14" d="M102.283,20.926c0.056,0.13 -0.018,0.26 -0.167,0.335c-1.081,0.671 -2.535,1.081 -3.914,1.081c-3.84,0 -6.412,-2.684 -6.412,-6.709c0,-4.027 2.572,-6.71 6.412,-6.71c1.379,0 2.833,0.41 3.914,1.08c0.149,0.075 0.223,0.206 0.167,0.337l-1.23,2.59c-0.075,0.168 -0.205,0.223 -0.354,0.149c-0.689,-0.391 -1.36,-0.522 -2.162,-0.522c-1.677,0 -2.796,1.231 -2.796,3.076c0,1.845 1.119,3.075 2.796,3.075c0.802,0 1.473,-0.131 2.162,-0.522c0.149,-0.075 0.279,-0.019 0.354,0.149l1.23,2.591Z" style="fill:#000;"/><path id="Fill-16" d="M115.646,21.839c0.093,0.131 0.019,0.223 -0.13,0.223l-4.324,0c-0.131,0 -0.318,-0.092 -0.392,-0.223l-2.311,-4.66l0,4.623c0,0.13 -0.112,0.26 -0.28,0.26l-3.299,0c-0.13,0 -0.26,-0.13 -0.26,-0.26l0,-12.32c0,-0.149 0.13,-0.279 0.26,-0.279l3.299,0c0.168,0 0.28,0.13 0.28,0.279l0,4.175l2.237,-4.231c0.074,-0.13 0.26,-0.223 0.428,-0.223l4.082,0c0.149,0 0.205,0.093 0.131,0.223l-3.691,5.908l3.97,6.505Z" style="fill:#000;"/><path id="Fill-18" d="M132.121,9.203c0.149,0 0.261,0.13 0.261,0.279l0,12.32c0,0.13 -0.112,0.26 -0.261,0.26l-3.448,0c-0.15,0 -0.279,-0.13 -0.279,-0.26l0,-5.48l-1.883,5.461c-0.056,0.149 -0.298,0.279 -0.466,0.279l-2.05,0c-0.168,0 -0.41,-0.13 -0.467,-0.279l-1.882,-5.461l0,5.48c0,0.13 -0.131,0.26 -0.279,0.26l-3.448,0c-0.149,0 -0.261,-0.13 -0.261,-0.26l0,-12.32c0,-0.149 0.112,-0.279 0.261,-0.279l3.895,0c0.242,0 0.522,0.167 0.634,0.372l2.572,7.12l2.572,-7.12c0.112,-0.205 0.391,-0.372 0.633,-0.372l3.896,0Z" style="fill:#000;"/><path id="Fill-20" d="M140.619,13.657l-1.007,3.541l2.013,0l-1.006,-3.541ZM147.179,21.821c0.056,0.111 -0.018,0.242 -0.168,0.242l-3.69,0c-0.167,0 -0.317,-0.094 -0.391,-0.242l-0.56,-1.957l-3.503,0l-0.56,1.957c-0.074,0.148 -0.223,0.242 -0.391,0.242l-3.69,0c-0.149,0 -0.224,-0.131 -0.168,-0.242l4.212,-12.376c0.056,-0.112 0.262,-0.242 0.448,-0.242l3.802,0c0.186,0 0.391,0.13 0.447,0.242l4.212,12.376Z" style="fill:#000;"/><path id="Fill-22" d="M156.795,9.203c0.169,0 0.28,0.13 0.261,0.26l-0.279,2.834c-0.019,0.148 -0.167,0.26 -0.298,0.26l-2.778,0l0,9.245c0,0.13 -0.112,0.26 -0.26,0.26l-3.299,0c-0.149,0 -0.28,-0.13 -0.28,-0.26l0,-9.245l-3.094,0c-0.131,0 -0.261,-0.112 -0.261,-0.26l0,-2.815c0,-0.149 0.13,-0.279 0.261,-0.279l10.027,0Z" style="fill:#000;"/><path id="Fill-24" d="M167.959,18.708c0.149,0 0.279,0.112 0.279,0.242l0,2.852c0,0.131 -0.13,0.261 -0.279,0.261l-8.667,0c-0.13,0 -0.261,-0.149 -0.298,-0.28l0,-12.32c0,-0.167 0.093,-0.26 0.261,-0.26l8.48,0c0.168,0 0.298,0.13 0.298,0.26l0,2.815c0,0.167 -0.13,0.279 -0.298,0.279l-4.864,0l0,1.473l3.951,0c0.167,0 0.261,0.13 0.242,0.242l-0.26,2.61c-0.019,0.111 -0.15,0.242 -0.317,0.242l-3.616,0l0,1.584l5.088,0Z" style="fill:#000;"/><path id="Fill-26" d="M62.688,26.567l-1.138,1.347c-0.507,-0.618 -1.257,-1.005 -1.943,-1.005c-1.224,0 -2.152,0.972 -2.152,2.241c0,1.291 0.928,2.274 2.152,2.274c0.652,0 1.402,-0.353 1.943,-0.905l1.149,1.215c-0.829,0.849 -2.053,1.412 -3.19,1.412c-2.329,0 -4.063,-1.711 -4.063,-3.974c0,-2.23 1.777,-3.907 4.128,-3.907c1.149,0 2.341,0.507 3.114,1.302" style="fill:#000;"/><path id="Fill-28" d="M72.138,29.349c0.849,0 1.346,-0.43 1.346,-1.248c0,-0.805 -0.497,-1.213 -1.346,-1.213l-1.491,0l0,2.461l1.491,0ZM72.192,30.894l-0.054,0l-1.491,0l0,2.175l-1.964,0l0,-7.727l3.455,0c2.042,0 3.212,0.972 3.212,2.693c0,1.182 -0.497,2.032 -1.402,2.484l1.622,2.55l-2.229,0l-1.149,-2.175Z" style="fill:#000;"/><path id="Fill-30" d="M84.06,26.888l0,1.534l3.687,0l0,1.545l-3.687,0l0,1.556l4.206,0l0,1.546l-6.17,0l0,-7.727l6.048,0l0,1.546l-4.084,0Z" style="fill:#000;"/><path id="Fill-32" d="M98.213,27.296l-1.126,2.858l2.23,0l-1.104,-2.858ZM96.514,31.645l-0.563,1.424l-2.021,0l3.334,-7.727l2.02,0l3.256,7.727l-2.097,0l-0.552,-1.424l-3.377,0Z" style="fill:#000;"/><path id="Fill-34" d="M112.26,26.926l0,6.148l-1.963,0l0,-6.148l-2.308,0l0,-1.589l6.6,0l0,1.589l-2.329,0Z" style="fill:#000;"/><rect id="Fill-36" x="123.361" y="25.342" width="1.964" height="7.727" style="fill:#000;"/><path id="Fill-38" d="M135.228,29.195c0,1.301 1.005,2.307 2.186,2.307c1.193,0 2.142,-1.006 2.142,-2.307c0,-1.303 -0.949,-2.285 -2.142,-2.285c-1.192,0 -2.186,0.982 -2.186,2.285M141.576,29.183c0,2.252 -1.789,3.963 -4.184,3.963c-2.385,0 -4.172,-1.7 -4.172,-3.963c0,-2.251 1.787,-3.919 4.172,-3.919c2.395,0 4.184,1.679 4.184,3.919" style="fill:#000;"/><path id="Fill-39" d="M152.284,33.069l-3.555,-4.758l0,4.758l-1.842,0l0,-7.727l1.733,0l3.565,4.769l0,-4.769l1.832,0l0,7.727l-1.733,0Z" style="fill:#000;"/><path id="Fill-40" d="M166.795,26.126l-0.739,1.535c-0.817,-0.476 -1.843,-0.807 -2.473,-0.807c-0.507,0 -0.85,0.188 -0.85,0.563c0,1.336 4.084,0.574 4.084,3.366c0,1.547 -1.368,2.363 -3.09,2.363c-1.292,0 -2.616,-0.486 -3.532,-1.237l0.761,-1.512c0.795,0.696 1.987,1.159 2.793,1.159c0.618,0 1.004,-0.232 1.004,-0.672c0,-1.37 -4.084,-0.553 -4.084,-3.29c0,-1.424 1.226,-2.329 3.08,-2.329c1.115,0 2.252,0.342 3.046,0.861" style="fill:#000;"/></g></svg>