<?xml version="1.0" standalone="no"?><!DOCTYPE svg PUBLIC "-//W3C//DTD SVG 1.1//EN" "http://www.w3.org/Graphics/SVG/1.1/DTD/svg11.dtd"><svg width="100%" height="100%" viewBox="0 0 338 338" version="1.1" xmlns="http://www.w3.org/2000/svg" xmlns:xlink="http://www.w3.org/1999/xlink" xml:space="preserve" style="fill-rule:evenodd;clip-rule:evenodd;stroke-linejoin:round;stroke-miterlimit:1.41421;"><path d="M337.5,168.75c0,93.2 -75.553,168.75 -168.75,168.75c-93.2,0 -168.75,-75.55 -168.75,-168.75c0,-93.197 75.55,-168.75 168.75,-168.75c93.197,0 168.75,75.553 168.75,168.75Z" style="fill:#27272b;fill-rule:nonzero;"/><path d="M29.359,210.887l0.066,-0.018c3.794,-0.913 6.284,-4.457 5.341,-8.378c-0.944,-3.919 -4.697,-5.894 -8.491,-4.979l-0.066,0.016c-3.793,0.913 -6.284,4.456 -5.34,8.375c0.944,3.925 4.697,5.897 8.49,4.984ZM24.922,192.453l0.062,-0.016c6.294,-1.515 12.641,2.207 14.288,9.038c1.644,6.831 -2.266,12.953 -8.559,14.472l-0.063,0.015c-6.291,1.513 -12.641,-2.209 -14.284,-9.037c-1.647,-6.831 2.265,-12.959 8.556,-14.472Z" style="fill:#fff;fill-rule:nonzero;"/><path d="M44.722,220.475l7.472,15.644l-4.11,1.962l-5.312,-11.122l-4.375,2.082l4.681,9.809l-4.109,1.959l-4.681,-9.803l-7.957,3.8l-2.156,-4.522l20.547,-9.809Z" style="fill:#fff;fill-rule:nonzero;"/><path d="M56.125,242.419l10.234,14l-3.675,2.69l-7.278,-9.956l-3.912,2.866l6.412,8.772l-3.675,2.684l-6.415,-8.772l-7.119,5.203l-2.956,-4.044l18.384,-13.443Z" style="fill:#fff;fill-rule:nonzero;"/><path d="M71.922,262.175l3.519,3.569l-16.222,15.99l-3.519,-3.568l16.222,-15.991Z" style="fill:#fff;fill-rule:nonzero;"/><path d="M74.503,280.838l0.038,-0.054c3.843,-5.215 10.925,-6.587 16.559,-2.434c3.459,2.55 4.681,5.225 5.147,8.156l-4.75,1.072c-0.469,-2.328 -1.331,-4.175 -3.166,-5.528c-3.093,-2.281 -7.215,-1.353 -9.531,1.794l-0.037,0.053c-2.319,3.144 -2.075,7.365 1.071,9.687c2.094,1.544 4,1.653 6.407,1.403l0.656,4.488c-3.375,0.628 -6.4,0.337 -9.938,-2.269c-5.4,-3.975 -6.337,-11.097 -2.456,-16.368Z" style="fill:#fff;fill-rule:nonzero;"/><path d="M105.294,287.725l4.453,2.303l-10.466,20.238l-4.456,-2.3l10.469,-20.241Z" style="fill:#fff;fill-rule:nonzero;"/><path d="M126.394,310.781l-0.61,-7.956l-5.146,6.1l5.756,1.856ZM125.497,296.412l4.394,1.416l2.247,24.819l-4.985,-1.606l-0.415,-5.5l-9.163,-2.957l-3.547,4.222l-4.859,-1.569l16.328,-18.825Z" style="fill:#fff;fill-rule:nonzero;"/><path d="M145.888,301.966l4.981,0.575l-2.103,18.106l11.287,1.312l-0.528,4.525l-16.262,-1.887l2.625,-22.631Z" style="fill:#fff;fill-rule:nonzero;"/><path d="M194.047,312.987c2.472,-0.421 3.666,-2.14 3.337,-4.068l-0.012,-0.066c-0.372,-2.216 -2.119,-3.141 -4.591,-2.722l-3.822,0.65l1.169,6.872l3.919,-0.666ZM183.253,303.159l9.188,-1.562c5.362,-0.913 9.147,1.715 9.925,6.306l0.012,0.066c0.885,5.203 -2.703,8.587 -7.747,9.443l-3.756,0.641l1.147,6.744l-4.944,0.84l-3.825,-22.478Z" style="fill:#fff;fill-rule:nonzero;"/><path d="M222.644,306.791l-5.406,-5.875l-0.269,7.978l5.675,-2.103ZM213.038,296.053l4.334,-1.606l17.131,18.115l-4.912,1.822l-3.728,-4.065l-9.035,3.347l-0.178,5.512l-4.791,1.778l1.179,-24.903Z" style="fill:#fff;fill-rule:nonzero;"/><path d="M246.85,291.916c2.063,-1.307 2.547,-3.15 1.522,-4.772l-0.034,-0.053c-1.15,-1.816 -3.004,-1.95 -5.066,-0.647l-4.203,2.659l3.494,5.522l4.287,-2.709ZM232.419,287.962l8.794,-5.562c2.446,-1.55 4.778,-2.059 6.84,-1.597c1.753,0.394 3.285,1.541 4.431,3.356l0.035,0.053c1.965,3.107 1.522,6.116 -0.35,8.569l9.044,3.9l-4.944,3.128l-8.019,-3.547l-0.056,0.035l-3.269,2.069l3.894,6.156l-4.228,2.675l-12.172,-19.235Z" style="fill:#fff;fill-rule:nonzero;"/><path d="M261.659,272.481l-5.037,4.744l-3.169,-3.359l13.731,-12.932l3.163,3.363l-5.038,4.75l12.438,13.209l-3.644,3.432l-12.444,-13.207Z" style="fill:#fff;fill-rule:nonzero;"/><path d="M271.947,255.55l2.672,-3.766l17.609,-0.6l-11.437,-8.109l2.859,-4.031l18.581,13.172l-2.465,3.475l-18.191,0.625l11.809,8.375l-2.856,4.031l-18.581,-13.172Z" style="fill:#fff;fill-rule:nonzero;"/><path d="M287.813,231.3l6.903,-15.734l4.081,1.793l-4.903,11.175l4.231,1.857l4.313,-9.835l4.084,1.791l-4.316,9.831l4.382,1.925l4.968,-11.325l4.085,1.794l-6.972,15.881l-20.856,-9.153Z" style="fill:#fff;fill-rule:nonzero;"/><path d="M310.172,200.578c0.531,-2.384 -0.438,-4.034 -2.313,-4.45l-0.062,-0.012c-2.097,-0.469 -3.503,0.753 -4.034,3.137l-1.082,4.863l6.391,1.421l1.1,-4.959ZM297.178,208.028l2.26,-10.169c0.628,-2.828 1.909,-4.847 3.696,-5.984c1.516,-0.963 3.413,-1.241 5.51,-0.775l0.062,0.012c3.594,0.8 5.419,3.241 5.841,6.3l9.153,-3.668l-1.272,5.722l-8.178,3.184l-0.016,0.066l-0.84,3.781l7.122,1.581l-1.088,4.897l-22.25,-4.947Z" style="fill:#fff;fill-rule:nonzero;"/><path d="M23.694,107.087l3.79,-6.821l16.375,-0.804l-7.965,-14.325l3.79,-6.825l28.779,15.991l-3.494,6.291l-18.788,-10.441l7.791,14.928l-0.091,0.166l-16.625,1.256l18.663,10.372l-3.447,6.203l-28.778,-15.991Z" style="fill:#fff;fill-rule:nonzero;"/><path d="M66.975,49.034l20.044,-14.628l3.797,5.203l-14.238,10.388l3.935,5.39l12.528,-9.14l3.793,5.2l-12.528,9.14l4.072,5.582l14.425,-10.528l3.797,5.203l-20.234,14.765l-19.391,-26.575Z" style="fill:#fff;fill-rule:nonzero;"/><path d="M131.444,23.366l-9.756,2.243l-1.497,-6.503l26.565,-6.112l1.494,6.503l-9.753,2.247l5.881,25.556l-7.053,1.622l-5.881,-25.556Z" style="fill:#fff;fill-rule:nonzero;"/><path d="M183.906,12.316l24.472,4.225l-1.097,6.35l-17.381,-3l-1.134,6.584l15.297,2.637l-1.1,6.35l-15.294,-2.637l-1.175,6.812l17.612,3.041l-1.097,6.35l-24.706,-4.262l5.603,-32.45Z" style="fill:#fff;fill-rule:nonzero;"/><path d="M255.969,58.6l0.056,-0.078c3.181,-4.653 2.422,-10.869 -2.387,-14.16c-4.81,-3.293 -10.747,-1.775 -13.932,2.882l-0.053,0.078c-3.187,4.653 -2.428,10.869 2.381,14.159c4.813,3.294 10.75,1.775 13.935,-2.881ZM233.356,43.125l0.053,-0.078c5.279,-7.719 15.697,-9.872 24.072,-4.141c8.382,5.731 10.122,16.091 4.841,23.813l-0.053,0.078c-5.285,7.719 -15.697,9.872 -24.078,4.14c-8.378,-5.734 -10.119,-16.09 -4.835,-23.812Z" style="fill:#fff;fill-rule:nonzero;"/><path d="M290.694,98.478c1.797,3.034 4.44,3.816 6.828,2.403l0.081,-0.047c2.672,-1.581 2.944,-4.256 1.15,-7.29l-3.665,-6.191l-8.132,4.816l3.738,6.309ZM297.022,77.797l7.662,12.944c2.132,3.6 2.772,6.99 2.013,9.953c-0.641,2.509 -2.366,4.675 -5.034,6.256l-0.082,0.05c-4.568,2.706 -8.903,1.937 -12.368,-0.872l-6.016,12.903l-4.309,-7.281l5.465,-11.431l-0.05,-0.078l-2.847,-4.813l-9.059,5.363l-3.688,-6.229l28.313,-16.765Z" style="fill:#fff;fill-rule:nonzero;"/><path d="M228.447,250.072l-143.428,-152.41l152.409,143.429c2.556,2.406 2.678,6.425 0.275,8.981c-2.406,2.556 -6.428,2.678 -8.984,0.275c-0.088,-0.085 -0.188,-0.188 -0.272,-0.275Z" style="fill:#fff;fill-rule:nonzero;"/><path d="M207.366,260.822l-108.147,-117.131l117.131,108.15c2.578,2.381 2.738,6.403 0.356,8.981c-2.381,2.578 -6.403,2.74 -8.981,0.359c-0.122,-0.112 -0.247,-0.24 -0.359,-0.359Z" style="fill:#fff;fill-rule:nonzero;"/><path d="M185.45,261.137l-71.872,-77.859l77.86,71.872c1.721,1.587 1.828,4.269 0.24,5.987c-1.587,1.719 -4.269,1.825 -5.987,0.241c-0.082,-0.078 -0.166,-0.162 -0.241,-0.241Z" style="fill:#fff;fill-rule:nonzero;"/><path d="M245.669,207.247l-75.035,-81.025l81.025,75.037c1.716,1.591 1.819,4.272 0.229,5.988c-1.591,1.715 -4.272,1.819 -5.988,0.231c-0.078,-0.072 -0.159,-0.156 -0.231,-0.231Z" style="fill:#fff;fill-rule:nonzero;"/><path d="M239.197,229.931l-108.619,-117.6l117.6,108.619c2.578,2.381 2.741,6.403 0.356,8.981c-2.381,2.578 -6.403,2.738 -8.981,0.356c-0.122,-0.112 -0.247,-0.237 -0.356,-0.356Z" style="fill:#fff;fill-rule:nonzero;"/><path d="M163.047,254.756l-34.194,-37.184l37.188,34.19c0.859,0.791 0.915,2.132 0.125,2.994c-0.794,0.863 -2.135,0.919 -2.994,0.125c-0.044,-0.037 -0.088,-0.084 -0.125,-0.125Z" style="fill:#fff;fill-rule:nonzero;"/><path d="M242.988,180.328l-34.191,-37.187l37.184,34.193c0.863,0.791 0.919,2.132 0.128,2.994c-0.793,0.859 -2.134,0.916 -2.996,0.125c-0.041,-0.041 -0.085,-0.084 -0.125,-0.125Z" style="fill:#fff;fill-rule:nonzero;"/><path d="M24.588,144.203l1.378,4.278l3.806,-2.39l-1.691,4.165l4.453,0.616l-3.975,2.1l3.016,3.334l-4.394,-0.944l0.166,4.491l-2.759,-3.547l-2.76,3.547l0.166,-4.491l-4.394,0.944l3.013,-3.334l-3.972,-2.1l4.453,-0.616l-1.694,-4.165l3.806,2.39l1.382,-4.278Z" style="fill:#fff;fill-rule:nonzero;"/><path d="M311.822,144.203l1.381,4.278l3.806,-2.39l-1.693,4.165l4.453,0.616l-3.975,2.1l3.015,3.334l-4.393,-0.944l0.165,4.491l-2.759,-3.547l-2.759,3.547l0.165,-4.491l-4.394,0.944l3.013,-3.334l-3.972,-2.1l4.453,-0.616l-1.694,-4.165l3.807,2.39l1.381,-4.278Z" style="fill:#fff;fill-rule:nonzero;"/></svg>