<?xml version="1.0" standalone="no"?><!DOCTYPE svg PUBLIC "-//W3C//DTD SVG 1.1//EN" "http://www.w3.org/Graphics/SVG/1.1/DTD/svg11.dtd"><svg width="100%" height="100%" viewBox="0 0 2428 2711" version="1.1" xmlns="http://www.w3.org/2000/svg" xmlns:xlink="http://www.w3.org/1999/xlink" xml:space="preserve" style="fill-rule:evenodd;clip-rule:evenodd;stroke-linejoin:round;stroke-miterlimit:1.41421;"><path d="M412.047,5.73l-28.403,48.7l2.659,699.265c7.988,19.131 21.303,34.785 29.291,53.047c-41.7,2.613 -94.072,0.881 -141.091,0.881c7.981,-19.143 20.406,-36.543 30.166,-54.803l-0.878,-341.803c-11.55,0.872 -23.072,5.222 -34.613,7.832c-31.947,6.09 -68.328,0.871 -98.494,-7.832l-1.781,1.738l0,337.465l1.781,8.694c10.647,15.653 21.294,31.3 28.391,48.709c-47.022,1.732 -90.503,1.732 -139.312,0.86c-3.554,-1.741 0,-5.219 1.781,-7.831l27.497,-47.832l-2.657,-697.522c-9.759,-17.39 -22.178,-33.921 -30.175,-53.056c45.263,-1.734 94.06,-0.866 140.21,-0.866l0,4.354l-29.281,49.568l0.878,291.357c7.987,8.7 20.415,10.443 31.059,13.922c34.609,6.09 72.759,5.221 102.05,-11.313l2.666,-4.341l-0.894,-290.493l-31.063,-51.303l0.897,-1.751c45.253,-0.868 95.825,-2.606 140.2,0l-0.884,4.354Z" style="fill:#231f20;fill-rule:nonzero;"/><path d="M1554.94,108.352l0,180.903c-2.653,2.603 -7.988,1.74 -12.413,1.74c-20.422,-45.222 -40.822,-91.325 -59.465,-137.418l-6.213,-1.732l-80.747,0.863l-0.887,2.603l0.887,267.887c11.547,2.604 25.741,1.741 38.166,0.86c20.394,-34.785 37.262,-72.181 58.566,-107.841c3.543,-0.859 8.871,-1.737 10.643,0.872c1.772,82.628 0.888,179.166 0.888,260.919c-11.531,5.222 -15.078,-6.96 -19.516,-13.919l-49.694,-89.578l-2.671,-1.75l-35.485,0.878l-1.784,4.341l1.784,277.462l24.844,46.085l-1.781,1.737l-119.778,0c6.193,-17.384 18.621,-32.184 25.728,-49.569l-1.782,-601.85l-26.615,-43.493l0,-2.604c86.959,-1.75 170.369,-0.868 255.559,-0.868l1.766,3.472Z" style="fill:#231f20;fill-rule:nonzero;"/><path d="M1294.07,108.352l0,207.006c-5.338,2.59 -10.669,1.731 -15.984,0.859l-47.025,-171.331l-1.772,-1.75l-39.05,0l-0.888,7.831l1.785,607.947l26.612,44.35l-7.981,0.869l-114.463,0l0,-3.481l25.732,-44.35l-2.669,-612.294c-11.531,-2.6 -28.385,-0.872 -40.81,-0.872l-1.781,5.222l-45.253,168.731c-4.434,0.859 -9.772,1.741 -14.203,0.859l-1.772,-6.078l0.884,-204.381l7.104,-1.741l239.578,-0.868l30.181,0.868l1.775,2.604Z" style="fill:#231f20;fill-rule:nonzero;"/><path d="M2342.36,998.558l29.213,-32.172c3.041,-1.737 9.075,-0.875 12.103,-0.875l2.009,4.359l-1.009,207.85l-27.2,0l-3.019,-2.59c-8.065,-48.71 -16.125,-98.281 -38.29,-142.638c-8.075,-15.662 -23.191,-33.05 -44.332,-33.934c-21.159,-2.6 -39.3,6.969 -49.381,22.625c-24.194,46.956 -20.162,112.2 3.022,159.159c14.109,27.835 38.291,52.178 60.459,76.535c54.41,53.053 105.8,109.581 113.86,180.903c7.059,50.443 9.072,106.978 -5.031,154.812c-9.079,33.922 -34.263,72.194 -78.597,80.888c-31.235,6.959 -66.503,-0.872 -88.675,-21.747c-12.088,-12.163 -22.169,-24.347 -32.247,-38.259l-4.019,5.221l-20.159,46.96c-6.044,3.481 -15.119,1.731 -22.169,1.731l-2.009,-7.822l0,-225.253c11.084,-1.75 24.178,-1.75 36.265,-0.881c8.072,33.928 14.11,67.853 25.185,100.031c13.106,34.781 25.203,73.922 63.496,96.537c9.063,5.216 22.153,6.091 32.235,2.607c28.222,-11.313 30.231,-40.013 35.268,-63.488c7.054,-73.934 -1.006,-148.731 -61.462,-200.909c-57.434,-57.41 -120.922,-113.072 -130.987,-188.735c-8.072,-49.575 -5.044,-103.493 11.084,-148.731c12.097,-35.647 46.34,-73.047 92.703,-75.662c39.294,-6.085 69.516,20.871 91.684,43.478Z" style="fill:#231f20;fill-rule:nonzero;"/><path d="M2057.2,999.442l2.019,-0.884l27.206,-30.428c4.016,-2.619 9.066,-2.619 13.097,-1.744l1.009,5.225l0,205.25l-1.009,1.75l-28.213,0c-9.059,-41.747 -13.103,-83.513 -28.209,-122.637c-9.072,-22.619 -23.175,-54.804 -56.425,-56.532c-12.1,-0.884 -23.181,1.728 -33.263,6.947c-32.24,33.056 -31.231,80.903 -27.203,125.25c5.032,24.35 14.11,46.972 27.203,67.834c50.382,70.457 135.029,127.866 155.182,209.604c15.118,71.321 20.15,156.55 -15.113,221.793c-15.109,26.085 -47.359,45.216 -80.609,45.216c-47.369,5.222 -77.588,-32.178 -99.772,-61.744l-3.003,3.466l-21.169,49.578c-6.047,1.75 -15.109,0.872 -22.159,0l-2.025,-3.472l0,-228.734c11.093,-2.619 25.194,-1.75 36.287,-0.869c11.066,55.65 24.166,111.312 52.381,160.887c5.05,10.451 14.11,19.144 23.185,27.829c12.087,9.578 29.209,16.543 46.347,9.578c23.178,-11.313 26.203,-34.794 31.228,-54.797c8.078,-67.844 4.034,-141.766 -45.335,-193.947c-41.315,-43.494 -89.671,-85.234 -118.899,-134.816c-39.304,-64.353 -38.291,-160.89 -9.072,-228.728c14.112,-33.062 49.375,-65.237 92.7,-65.237c36.271,-0.863 63.475,20.871 83.634,44.362Z" style="fill:#231f20;fill-rule:nonzero;"/><path d="M932.688,1001.17l3.018,0l28.222,-32.172c6.044,-0.868 10.078,-1.737 14.103,0.872l0,209.603l-2.018,0.869l-28.207,0c-10.078,-49.578 -17.131,-100.881 -39.29,-146.119c-9.075,-15.643 -27.213,-33.909 -49.375,-33.053c-14.11,0 -24.2,4.357 -34.263,12.188c-30.231,36.525 -28.212,93.928 -18.14,140.025c20.15,66.106 86.656,115.675 132.006,171.337c55.415,64.363 63.472,148.719 55.415,232.21c-7.059,45.244 -20.153,95.675 -73.546,115.678c-26.21,9.569 -63.491,7.831 -85.672,-7.822c-20.132,-13.053 -32.232,-30.434 -46.335,-47.841c-12.093,15.66 -14.115,34.788 -24.193,51.313c-6.047,2.609 -16.119,1.747 -23.172,0.878l-0.997,-8.703l0,-223.516l33.24,-0.875l3.029,1.738c14.112,62.622 24.187,126.115 66.503,177.425c10.072,13.047 26.197,24.365 44.328,22.615c23.178,-0.872 31.25,-21.743 37.29,-36.534c12.085,-46.091 11.072,-101.75 -1.009,-146.981c-32.244,-96.535 -156.181,-150.469 -179.353,-250.482c-13.103,-48.706 -12.094,-107.84 2.016,-156.549c10.065,-35.666 37.268,-77.404 82.631,-86.976c31.222,-7.821 64.475,1.741 85.637,22.625l18.132,18.247Z" style="fill:#231f20;fill-rule:nonzero;"/><path d="M1820.41,967.261l0,183.506c-4.021,1.738 -10.078,1.738 -14.109,0l-68.516,-137.409l-93.715,0l-2.006,3.472l1.006,252.228c14.106,3.472 30.222,2.615 44.331,1.728c23.181,-30.431 43.331,-61.738 65.488,-93.066c3.028,-2.59 8.065,-1.722 13.106,-0.859l1.009,16.522l-1.009,217.44l-12.091,-0.859l-64.481,-87.85l-3.022,-1.747l-41.312,0.869l-2.019,3.484l1,287.007l3.028,1.747l93.697,0l4.031,-5.219l65.506,-139.16c6.057,-2.612 10.078,-1.737 16.132,0l1.006,191.338l-1.006,2.612l-290.207,0.869c-3.018,0 -2.012,-3.481 -2.012,-5.219l28.222,-43.49l1.997,-26.088l-3.004,-577.509l-29.225,-45.222l2.01,-1.737l284.166,0l1.999,2.612Z" style="fill:#231f20;fill-rule:nonzero;"/><path d="M1524.17,965.511c2.019,6.972 -7.053,13.053 -10.078,20.006l-17.132,27.841l0,649.687c-9.065,1.741 -21.171,0.869 -31.237,0c-18.128,-49.571 -35.259,-100.881 -52.403,-152.206l-89.672,-257.434c-16.116,-50.45 -31.225,-100.9 -45.328,-151.338c-2.019,-1.747 -5.05,-1.747 -7.066,0l3.028,77.406l2.019,439.222l29.213,43.485l0,1.734c-42.313,0 -81.625,1.741 -122.932,0l1.013,-5.219l28.209,-41.75l-2.015,-605.337c-9.082,-14.775 -22.163,-28.685 -29.213,-45.222c38.284,-1.737 81.606,-1.737 118.897,-0.875l3.016,6.972l108.831,340.053c7.053,27.831 12.084,55.672 18.131,83.503c1.013,1.734 4.031,1.734 6.044,0.872l2.022,-3.481l-4.035,-79.153l-2.012,-302.669c-10.078,-14.775 -19.15,-29.575 -28.216,-45.222c39.294,-2.606 82.619,-1.737 120.916,-0.875Z" style="fill:#231f20;fill-rule:nonzero;"/><path d="M1143.28,967.261c-6.04,15.662 -20.15,30.434 -29.222,46.097l2.029,605.337l29.215,44.35l-2.022,0.869l-137.031,0l-1.009,-1.734c10.078,-15.66 20.15,-30.45 30.222,-46.103l-3.019,-604.469l-29.213,-43.478l1.01,-0.869c47.356,-0.875 94.709,-2.612 139.04,0Z" style="fill:#231f20;fill-rule:nonzero;"/><path d="M731.169,968.13c-6.047,16.525 -22.166,30.428 -29.228,47.837l0,501.835c-4.025,59.134 -10.069,129.59 -81.616,153.934c-49.375,14.794 -114.862,10.441 -152.162,-24.344c-33.235,-31.315 -37.263,-73.925 -38.282,-117.412l-2.009,-516.622l-30.241,-43.488l2.025,-1.74c44.344,-1.744 92.71,-1.744 137.05,0l0,4.353l-29.231,42.615l2.009,537.494c4.041,26.956 5.041,59.135 38.294,70.435c20.163,4.359 47.353,5.225 63.485,-6.95c21.162,-17.391 23.178,-42.61 26.203,-66.963l1.006,-140.9l-2.019,-394.856l-29.222,-43.488l1.01,-1.74c39.293,-1.744 83.631,-1.744 122.928,0Z" style="fill:#231f20;fill-rule:nonzero;"/><path d="M258.588,1255.14c12.096,-9.563 28.221,-11.313 40.309,-20.003c62.478,-34.785 95.731,-92.191 96.731,-154.809c2.003,-77.407 -14.112,-156.551 -93.709,-198.291l-32.241,-11.303c-68.515,-17.4 -146.109,-7.841 -222.678,-9.572l-2.028,1.731l32.25,51.319l2.019,698.378c-10.078,17.412 -23.178,34.806 -31.241,53.95l16.122,0.85c69.516,-2.6 140.05,7.831 202.525,-13.044c66.516,-16.531 119.912,-75.653 137.044,-131.315c20.15,-73.066 13.09,-158.304 -46.347,-213.963c-27.21,-26.972 -62.478,-41.747 -98.756,-53.928ZM169.919,916.817c12.09,-3.478 28.222,-0.869 41.322,0c27.203,3.472 53.397,16.528 69.528,37.4c29.209,41.741 28.19,97.413 24.162,148.725c-6.034,41.735 -18.122,85.222 -62.456,108.706c-20.162,9.569 -44.334,12.182 -69.534,10.438l-2.01,-1.738l-1.012,-87.84l0,-215.691ZM278.747,1580.42c-28.213,24.344 -64.484,33.054 -104.797,30.447l-3.019,-2.612l-1.012,-316.582c1.012,-6.09 12.09,-1.74 16.122,-4.359c42.315,0 81.625,16.522 102.784,47.834c16.106,25.225 24.178,53.057 28.206,81.75c3.022,58.282 6.053,120.035 -38.284,163.522Z" style="fill:#231f20;fill-rule:nonzero;"/><path d="M319.141,1714.33l-34.641,50.769l1.044,778.253c-6.288,54.272 -17.844,109.428 -69.288,146.194c-32.537,21.009 -86.081,27.14 -124.931,12.259c-66.134,-28.884 -83.981,-90.156 -91.325,-147.075l2.091,-2.625l75.59,-16.631l4.197,0c5.244,38.531 5.244,79.672 32.544,110.3c10.506,10.506 29.403,10.506 43.037,5.259c28.363,-12.256 31.507,-40.272 33.607,-64.794l-1.053,-822.887l-35.688,-49.903l0,-2.616c54.578,-1.759 109.178,-2.641 165.866,0l-1.05,3.497Z" style="fill:#231f20;fill-rule:nonzero;"/><path d="M2221.43,1818.5l-29.393,43.781l2.084,602.287l6.309,1.75l58.803,-0.868l3.132,-3.5l79.793,-212.744c5.25,-2.622 9.457,-0.863 15.744,-0.863l2.097,3.494l0,263.5l-10.494,0.881l-268.753,0l0,-3.509l30.447,-46.391l-2.1,-606.675l-30.447,-43.759c12.61,-1.756 25.2,-1.756 37.794,-1.756l106.034,0.869l-1.05,3.503Z" style="fill:#231f20;fill-rule:nonzero;"/><path d="M1719.61,1815.89c-6.296,15.759 -20.987,30.631 -28.34,46.397l-1.053,654.822c-13.653,-2.638 -34.638,7.862 -36.731,-8.76l-153.291,-428.09c-14.703,-41.15 -23.094,-85.785 -37.797,-127.806c-1.028,-1.75 -5.241,-0.879 -7.341,0l-1.056,3.493l3.156,83.163l1.047,209.24l2.103,224.097c8.4,15.757 23.091,28.903 29.394,44.663c-39.897,2.612 -86.081,0.869 -127.031,0.869l0,-3.507l30.444,-44.643l-2.1,-606.676c-9.447,-15.753 -23.094,-30.631 -31.491,-46.393c39.897,-2.625 82.931,-0.869 123.875,-0.869l5.253,9.619l110.231,336.165c8.404,28.016 14.694,57.791 19.947,86.675c1.047,1.747 5.25,1.747 7.353,1.747l2.091,-3.506l-4.194,-93.663l-2.097,-291.521l-30.447,-43.782l1.044,-1.734c43.05,-1.756 83.984,-1.756 127.031,0Z" style="fill:#231f20;fill-rule:nonzero;"/><path d="M1005.73,1817.62c-8.393,15.775 -20.993,29.775 -30.45,45.528l0,519.135c-6.297,54.272 -13.643,117.306 -81.875,141.803c-47.25,14.013 -103.931,13.144 -144.884,-11.375c-41.991,-27.128 -55.641,-67.397 -56.684,-110.294l-2.1,-378.187l0,-160.194c-9.46,-15.763 -25.194,-29.775 -31.51,-46.416l130.188,-0.865l14.687,1.747c-6.281,16.637 -22.034,30.64 -29.387,47.281l2.103,547.141c3.153,24.509 8.406,50.778 35.69,62.153c22.054,6.115 49.338,6.115 68.25,-5.253c24.138,-19.263 26.241,-46.394 29.385,-72.669l-1.05,-533.119l-31.494,-45.534c8.403,-4.372 20.994,-0.882 31.494,-2.616l96.581,0.869l1.056,0.865Z" style="fill:#231f20;fill-rule:nonzero;"/><path d="M588.953,1854.41c-27.294,-32.4 -71.387,-50.788 -119.687,-43.778c-58.788,6.99 -94.488,57.775 -112.332,98.915c-36.743,98.044 -37.793,208.369 -34.64,319.538c5.253,91.044 12.6,183.841 68.237,258.25c26.25,32.384 68.235,50.766 114.432,45.512c47.246,-2.625 83.99,-35.887 102.884,-68.275c45.137,-78.793 49.344,-175.084 51.453,-265.25c-1.072,-108.559 1.031,-225.865 -52.509,-319.534l-17.838,-25.378ZM554.313,2424.3c-5.254,23.643 -13.66,49.912 -42.01,62.156c-15.747,7.003 -38.834,4.381 -52.484,-4.378c-22.05,-14.882 -26.244,-36.763 -33.591,-57.778c-13.65,-70.041 -13.65,-142.704 -13.65,-217.982c0,-90.159 -4.206,-180.328 9.447,-269.622c6.288,-31.515 11.55,-71.787 53.544,-84.059c24.144,-4.363 47.24,2.641 59.84,21.012c30.447,49.029 26.25,112.063 30.447,169.851l1.05,181.199c1.05,69.16 0,134.822 -12.593,199.601Z" style="fill:#231f20;fill-rule:nonzero;"/><path d="M2044.01,2468.07l-68.234,-419.328l-3.156,-32.39c-11.547,-51.65 -16.794,-105.05 -26.232,-157.575l26.232,-42.888l-1.044,-0.887c-46.191,-0.869 -92.391,-1.747 -140.681,0.887l0,1.734l23.109,41.154l-42.006,220.609l-74.538,386.937l-32.54,46.391l-1.05,4.394l118.625,0l2.106,-1.766l-28.35,-42.009l-2.103,-7.878c9.447,-50.778 17.85,-100.688 30.453,-150.578l2.1,-0.888c25.194,7.013 52.484,14.897 79.778,8.759c13.663,-1.746 25.206,-7.871 37.8,-7.871c10.5,49.028 16.794,100.681 24.15,151.446c-7.356,17.516 -22.041,32.388 -30.447,49.019l1.044,1.766l133.328,0l3.15,-1.766l-31.494,-47.272ZM1915.93,2268.47c-26.253,7.878 -57.74,4.375 -80.846,-7.891l-1.035,-3.488l45.131,-241.615l8.4,-55.153c3.16,-1.744 9.453,-1.744 8.397,3.509l8.413,90.166c11.54,67.4 18.89,135.684 30.443,203.093c-3.153,6.122 -11.553,8.757 -18.903,11.379Z" style="fill:#231f20;fill-rule:nonzero;"/><path d="M1313.33,2312.24c-1.047,-24.506 -5.256,-47.268 -12.603,-69.153c-10.494,-36.775 -50.384,-71.793 -95.534,-81.422c-1.038,-0.865 0,-0.865 0,-2.615c68.24,-19.266 124.928,-76.169 128.09,-136.572c5.247,-53.397 0,-105.931 -30.453,-148.835c-57.731,-68.268 -160.628,-56.028 -251.947,-57.762c-13.662,0.869 -27.303,-1.756 -38.843,1.734l31.478,45.528l1.053,609.294l-30.441,44.663l1.053,0.869c46.188,1.743 95.532,1.743 142.775,0l1.053,-2.635l-30.453,-42.897l-1.043,-270.49l1.043,-8.757c27.297,-0.881 55.65,6.125 72.447,26.25c33.588,52.532 17.847,123.447 24.141,184.722c4.197,41.147 6.303,84.913 45.144,113.807c25.196,0.881 57.734,0.881 83.984,-0.869c-7.347,-14.9 -18.897,-28.906 -24.153,-43.775c-20.981,-49.031 -9.447,-109.428 -16.791,-161.085ZM1178.96,2126.66c-14.7,4.384 -32.556,6.131 -49.35,4.384l-2.093,-6.144l0,-259.987c36.743,-1.76 71.387,4.372 94.481,28.894c31.494,39.384 30.453,94.543 23.103,142.693c-5.263,35.894 -22.059,75.282 -66.141,90.16Z" style="fill:#231f20;fill-rule:nonzero;"/><path d="M1790.11,145.748c-14.212,-23.478 -39.943,-42.618 -66.553,-47.84c-40.834,-8.682 -78.097,8.703 -102.047,40.015c-48.809,69.579 -55.025,157.425 -60.343,245.266c-0.894,87.841 -2.666,179.166 12.415,262.653c9.756,48.716 22.194,97.41 55.913,137.428c23.95,26.953 60.343,38.257 98.493,31.307c45.254,-9.572 71.882,-55.663 86.066,-94.8c33.725,-98.285 31.934,-213.091 30.184,-323.541c-5.324,-87.847 -8.896,-178.294 -54.128,-250.488ZM1758.15,708.467c-6.209,24.344 -13.312,54.791 -41.712,64.359c-17.747,2.613 -36.385,-2.609 -47.9,-17.384c-21.303,-30.444 -21.303,-69.59 -25.747,-106.109c-2.66,-46.972 -5.328,-96.547 -4.438,-141.769l0,-184.384c0.897,-45.228 5.319,-89.585 13.307,-132.203c6.218,-21.744 18.64,-50.441 46.146,-53.054c13.313,-1.737 25.744,1.741 35.494,10.435c21.3,26.965 25.735,60.881 29.288,95.678l4.434,73.912l0.891,193.957c0,64.365 0,133.937 -9.763,196.562Z" style="fill:#231f20;fill-rule:nonzero;"/><path d="M2259.5,104.88c-39.04,-5.222 -85.187,-2.613 -126.006,-1.75l0,1.75l26.625,45.228l1.766,601.847c-8.866,16.512 -18.635,32.175 -26.61,47.828l0.885,1.744c35.49,-0.875 71.881,0.878 105.6,-0.875c55.012,-4.347 106.472,-33.91 134.862,-80.875c35.513,-60.882 47.925,-131.335 50.588,-205.26c1.768,-120.894 2.656,-243.525 -58.572,-340.065c-24.841,-39.138 -65.657,-61.75 -109.138,-69.572ZM2321.62,699.77c-11.531,23.482 -33.725,50.45 -62.113,53.925c-7.994,0.86 -17.74,1.747 -26.619,0l-1.778,-5.222l-0.896,-597.506c31.074,-3.469 63.012,8.694 79.875,36.538c34.603,59.134 36.381,133.056 39.931,203.509c0.884,104.369 7.106,216.562 -28.4,308.756Z" style="fill:#231f20;fill-rule:nonzero;"/><path d="M2096.24,589.305c-3.557,-52.175 -16.863,-108.703 -69.219,-133.928c-7.094,-3.472 -16.853,-5.222 -23.072,-9.582l0.9,-0.85c41.7,-16.528 85.169,-52.184 99.362,-96.55c15.991,-53.918 13.319,-118.281 -7.093,-168.722c-13.304,-31.315 -44.366,-59.143 -77.191,-66.971c-55.906,-14.794 -118.022,-8.704 -175.688,-8.704l-0.9,1.75l25.735,44.36l1.781,603.587c-7.994,16.522 -18.641,31.297 -25.734,47.832c41.7,0.878 81.634,0.878 121.556,-0.875c-7.1,-14.772 -16.85,-29.572 -25.728,-45.21l-0.891,-273.103l1.778,-4.359c6.21,-1.738 13.313,0.881 19.516,0.881c23.962,4.341 46.15,25.215 51.475,48.697c12.428,52.19 6.206,110.456 10.644,167c1.784,40 7.115,80.009 37.269,106.094l69.212,0.875l1.772,-1.744c-14.194,-24.344 -26.622,-49.563 -30.169,-77.406c-2.659,-44.338 -2.659,-88.707 -5.315,-133.072ZM1956.91,417.108c-6.203,-0.869 -15.962,2.612 -16.853,-5.219l0,-260.05c32.828,-2.613 65.672,6.953 83.413,33.916c21.297,35.656 21.297,81.765 17.759,125.246c-1.781,23.482 -7.109,45.226 -17.759,65.222c-12.425,24.353 -38.157,40.016 -66.56,40.885Z" style="fill:#231f20;fill-rule:nonzero;"/><path d="M969.297,512.783c-12.428,-30.444 -41.709,-54.797 -72.759,-61.766l-1.782,-1.725c35.503,-13.931 69.222,-38.275 88.741,-72.194c31.053,-56.537 26.616,-139.146 2.659,-197.425c-32.834,-74.793 -125.118,-73.925 -196.1,-73.062c-19.518,0.878 -36.375,0 -54.134,1.741c7.112,15.659 16.866,30.437 25.734,45.225l1.782,603.593c-7.11,16.519 -19.538,31.31 -25.732,48.703l118.894,0l2.672,-2.609c-8.881,-14.784 -17.756,-28.697 -25.741,-43.487l-0.875,-275.697c2.653,-6.1 11.519,-1.741 15.969,-1.741c22.169,3.475 45.244,17.397 51.456,40c15.978,46.969 10.657,101.769 14.2,153.081c1.778,46.957 1.778,97.406 38.147,129.585l68.325,0l1.785,-1.741c-15.082,-25.219 -27.507,-51.309 -30.166,-81.744c-8.875,-66.968 5.309,-146.994 -23.075,-208.737ZM884.113,411.017c-15.082,8.703 -32.829,12.181 -49.694,8.703l-1.763,-3.481l0,-260.05l1.763,-1.741c31.953,-0.871 66.55,9.563 82.525,39.138c20.403,39.147 17.756,89.587 13.315,134.806c-5.328,32.185 -15.978,65.231 -46.146,82.625Z" style="fill:#231f20;fill-rule:nonzero;"/><path d="M633,217.07l-7.997,-66.103c5.319,-14.781 17.76,-26.956 21.303,-42.615c-37.278,-1.741 -76.315,0 -117.14,0l-3.541,1.74l20.403,40.875l-33.709,208.731l-65.669,398.335c-8.872,16.534 -20.412,31.316 -29.284,47.84l1.778,0.869c28.384,0 70.987,1.741 102.04,-0.869c-6.209,-17.393 -18.643,-31.306 -25.725,-47.84l23.95,-147.847l2.666,-6.091l24.841,7.841c25.737,7.816 51.468,0 74.553,-7.841l2.647,1.731c5.328,51.326 15.975,100.901 19.528,152.207l-25.738,46.972l0.885,0.868l110.925,0l4.434,-0.868l-25.725,-48.703l-75.425,-539.232ZM603.709,557.133c-23.956,10.437 -51.475,7.834 -74.543,-6.091l0.893,-14.781l31.944,-188.738c6.21,-30.434 7.1,-62.609 11.535,-94.797c3.553,-3.471 8.881,0 7.1,4.351l8.871,89.578l25.735,201.781c-0.888,5.209 -7.094,6.087 -11.535,8.697Z" style="fill:#231f20;fill-rule:nonzero;"/></svg>