<?xml version="1.0" standalone="no"?><!DOCTYPE svg PUBLIC "-//W3C//DTD SVG 1.1//EN" "http://www.w3.org/Graphics/SVG/1.1/DTD/svg11.dtd"><svg width="100%" height="100%" viewBox="0 0 586 89" version="1.1" xmlns="http://www.w3.org/2000/svg" xmlns:xlink="http://www.w3.org/1999/xlink" xml:space="preserve" style="fill-rule:evenodd;clip-rule:evenodd;stroke-linejoin:round;stroke-miterlimit:1.41421;"><g><path d="M431.716,0.634l-2.616,4.506l0.08,69.069c-0.476,4.818 -1.347,9.713 -5.231,12.976c-2.458,1.864 -6.501,2.407 -9.432,1.087c-4.993,-2.564 -6.343,-8.002 -6.898,-13.052l0.158,-0.232l5.708,-1.479l0.318,0c0.397,3.42 0.397,7.072 2.457,9.791c0.793,0.933 2.219,0.933 3.251,0.465c2.139,-1.087 2.376,-3.573 2.534,-5.747l-0.079,-73.034l-2.695,-4.427l0,-0.234c4.124,-0.155 8.245,-0.233 12.527,0l-0.082,0.311Z" style="fill:#ae2100;fill-rule:nonzero;"/><path d="M31.786,1.722l-2.536,4.35l0.237,62.467c0.714,1.708 1.903,3.108 2.616,4.738c-3.726,0.232 -8.403,0.078 -12.603,0.078c0.713,-1.708 1.822,-3.264 2.695,-4.895l-0.079,-30.532c-1.031,0.077 -2.061,0.465 -3.093,0.698c-2.853,0.544 -6.103,0.078 -8.798,-0.698l-0.158,0.155l0,30.144l0.158,0.777c0.951,1.398 1.902,2.797 2.537,4.351c-4.201,0.154 -8.085,0.154 -12.445,0.077c-0.317,-0.155 0,-0.466 0.159,-0.698l2.457,-4.274l-0.238,-62.309c-0.872,-1.554 -1.982,-3.03 -2.695,-4.74c4.043,-0.156 8.402,-0.077 12.524,-0.077l0,0.388l-2.615,4.429l0.079,26.027c0.713,0.777 1.823,0.933 2.774,1.243c3.092,0.544 6.5,0.467 9.116,-1.01l0.238,-0.389l-0.08,-25.95l-2.774,-4.583l0.079,-0.155c4.043,-0.079 8.561,-0.234 12.524,0l-0.079,0.388Z" style="fill:#ae2100;fill-rule:nonzero;"/><path d="M402.016,12.987l2.298,-2.875c0.237,-0.155 0.715,-0.077 0.953,-0.077l0.156,0.388l-0.078,18.569l-2.14,0l-0.238,-0.233c-0.634,-4.351 -1.269,-8.78 -3.013,-12.742c-0.634,-1.398 -1.823,-2.952 -3.488,-3.03c-1.665,-0.233 -3.091,0.622 -3.883,2.02c-1.902,4.196 -1.585,10.023 0.237,14.219c1.109,2.485 3.013,4.662 4.757,6.836c4.279,4.739 8.324,9.79 8.957,16.16c0.554,4.506 0.714,9.557 -0.396,13.829c-0.715,3.031 -2.695,6.45 -6.184,7.226c-2.455,0.622 -5.23,-0.077 -6.977,-1.941c-0.949,-1.089 -1.742,-2.176 -2.534,-3.42l-0.318,0.468l-1.585,4.196c-0.473,0.309 -1.189,0.154 -1.744,0.154l-0.159,-0.7l0,-20.122c0.871,-0.157 1.903,-0.157 2.856,-0.078c0.632,3.031 1.108,6.061 1.979,8.935c1.032,3.109 1.984,6.603 4.994,8.623c0.714,0.467 1.745,0.544 2.537,0.233c2.222,-1.008 2.377,-3.574 2.775,-5.671c0.555,-6.604 -0.08,-13.285 -4.835,-17.947c-4.519,-5.128 -9.513,-10.1 -10.306,-16.86c-0.634,-4.428 -0.394,-9.245 0.871,-13.285c0.953,-3.186 3.648,-6.527 7.293,-6.759c3.092,-0.544 5.471,1.864 7.215,3.884Z" style="fill:#ae2100;fill-rule:nonzero;"/><path d="M379.582,13.065l0.16,-0.078l2.14,-2.719c0.316,-0.233 0.713,-0.233 1.031,-0.156l0.08,0.467l0,18.336l-0.08,0.155l-2.22,0c-0.714,-3.73 -1.029,-7.459 -2.219,-10.955c-0.715,-2.02 -1.823,-4.895 -4.439,-5.05c-0.952,-0.078 -1.825,0.155 -2.617,0.622c-2.536,2.952 -2.457,7.225 -2.139,11.187c0.395,2.176 1.108,4.196 2.139,6.06c3.965,6.294 10.623,11.421 12.207,18.726c1.19,6.371 1.586,13.983 -1.188,19.811c-1.19,2.33 -3.727,4.038 -6.342,4.038c-3.724,0.468 -6.103,-2.873 -7.847,-5.514l-0.238,0.311l-1.665,4.428c-0.475,0.155 -1.189,0.078 -1.744,0l-0.158,-0.312l0,-20.433c0.873,-0.234 1.981,-0.155 2.853,-0.077c0.871,4.973 1.903,9.944 4.122,14.374c0.397,0.93 1.11,1.709 1.824,2.485c0.951,0.854 2.299,1.476 3.646,0.854c1.822,-1.008 2.06,-3.107 2.457,-4.893c0.634,-6.062 0.319,-12.665 -3.568,-17.327c-3.249,-3.884 -7.054,-7.614 -9.353,-12.041c-3.092,-5.75 -3.012,-14.374 -0.713,-20.435c1.11,-2.951 3.884,-5.826 7.292,-5.826c2.854,-0.078 4.996,1.864 6.579,3.962Z" style="fill:#ae2100;fill-rule:nonzero;"/><path d="M291.121,13.22l0.237,0l2.219,-2.874c0.476,-0.078 0.794,-0.156 1.111,0.077l0,18.724l-0.16,0.079l-2.218,0c-0.794,-4.43 -1.348,-9.014 -3.092,-13.053c-0.713,-1.399 -2.14,-3.03 -3.885,-2.953c-1.109,0 -1.901,0.389 -2.694,1.088c-2.379,3.263 -2.22,8.391 -1.428,12.508c1.586,5.906 6.818,10.334 10.385,15.307c4.36,5.749 4.994,13.285 4.36,20.743c-0.555,4.041 -1.585,8.549 -5.787,10.334c-2.061,0.854 -4.994,0.699 -6.737,-0.699c-1.586,-1.165 -2.537,-2.72 -3.647,-4.274c-0.952,1.398 -1.11,3.109 -1.903,4.585c-0.475,0.232 -1.267,0.154 -1.822,0.077l-0.08,-0.777l0,-19.967l2.615,-0.078l0.238,0.155c1.111,5.596 1.903,11.266 5.233,15.852c0.792,1.163 2.061,2.173 3.487,2.017c1.823,-0.077 2.458,-1.942 2.933,-3.262c0.952,-4.119 0.872,-9.09 -0.079,-13.129c-2.536,-8.626 -12.287,-13.442 -14.109,-22.377c-1.032,-4.35 -0.951,-9.634 0.158,-13.985c0.793,-3.185 2.933,-6.915 6.5,-7.769c2.457,-0.699 5.073,0.155 6.738,2.02l1.427,1.631Z" style="fill:#ae2100;fill-rule:nonzero;"/><path d="M575.35,9.88l-2.219,3.884l0.159,53.452l0.474,0.156l4.44,-0.078l0.236,-0.31l6.025,-18.88c0.396,-0.232 0.715,-0.077 1.189,-0.077l0.16,0.31l0,23.386l-0.793,0.078l-20.294,0l0,-0.311l2.3,-4.118l-0.158,-53.841l-2.298,-3.885c0.951,-0.155 1.9,-0.155 2.853,-0.155l8.005,0.078l-0.079,0.311Z" style="fill:#ae2100;fill-rule:nonzero;"/><path d="M537.46,9.646c-0.477,1.399 -1.584,2.719 -2.141,4.118l-0.079,58.115c-1.031,-0.232 -2.615,0.701 -2.775,-0.776l-11.572,-37.992c-1.109,-3.653 -1.744,-7.615 -2.854,-11.345c-0.08,-0.155 -0.397,-0.077 -0.555,0l-0.078,0.311l0.236,7.381l0.08,18.569l0.158,19.889c0.635,1.398 1.745,2.565 2.219,3.963c-3.011,0.233 -6.497,0.079 -9.589,0.079l0,-0.311l2.297,-3.964l-0.158,-53.841c-0.712,-1.398 -1.744,-2.719 -2.379,-4.118c3.014,-0.233 6.264,-0.078 9.355,-0.078l0.395,0.855l8.324,29.835c0.634,2.486 1.111,5.128 1.505,7.691c0.08,0.155 0.398,0.155 0.556,0.155l0.158,-0.31l-0.316,-8.313l-0.161,-25.872l-2.296,-3.885l0.079,-0.156c3.249,-0.155 6.34,-0.155 9.591,0Z" style="fill:#ae2100;fill-rule:nonzero;"/><path d="M483.559,9.802c-0.637,1.398 -1.587,2.642 -2.301,4.04l0,46.072c-0.475,4.818 -1.029,10.411 -6.182,12.587c-3.567,1.243 -7.848,1.165 -10.939,-1.011c-3.17,-2.408 -4.202,-5.982 -4.28,-9.788l-0.159,-33.564l0,-14.219c-0.713,-1.398 -1.902,-2.641 -2.378,-4.117l9.831,-0.078l1.108,0.156c-0.475,1.476 -1.664,2.719 -2.218,4.195l0.158,48.558c0.236,2.175 0.634,4.506 2.694,5.516c1.665,0.545 3.727,0.545 5.152,-0.466c1.825,-1.709 1.984,-4.116 2.219,-6.448l-0.078,-47.316l-2.377,-4.039c0.634,-0.389 1.584,-0.078 2.377,-0.234l7.295,0.078l0.078,0.078Z" style="fill:#ae2100;fill-rule:nonzero;"/><path d="M360.954,10.19l0,16.393c-0.316,0.156 -0.791,0.156 -1.109,0l-5.391,-12.275l-7.37,0l-0.16,0.311l0.08,22.531c1.11,0.311 2.378,0.233 3.487,0.156c1.824,-2.72 3.409,-5.516 5.152,-8.314c0.237,-0.233 0.635,-0.156 1.032,-0.077l0.079,1.476l-0.079,19.423l-0.953,-0.077l-5.072,-7.848l-0.238,-0.155l-3.25,0.078l-0.158,0.311l0.08,25.639l0.238,0.154l7.372,0l0.317,-0.464l5.152,-12.432c0.475,-0.234 0.791,-0.155 1.268,0l0.08,17.092l-0.08,0.232l-22.829,0.078c-0.238,0 -0.158,-0.31 -0.158,-0.464l2.218,-3.884l0.16,-2.333l-0.239,-51.588l-2.297,-4.041l0.158,-0.155l22.352,0l0.158,0.233Z" style="fill:#ae2100;fill-rule:nonzero;"/><path d="M337.65,10.035c0.158,0.621 -0.554,1.165 -0.792,1.787l-1.348,2.486l0,58.036c-0.713,0.157 -1.664,0.078 -2.458,0c-1.426,-4.428 -2.775,-9.011 -4.122,-13.595l-7.054,-22.998c-1.268,-4.506 -2.458,-9.012 -3.567,-13.519c-0.159,-0.155 -0.395,-0.155 -0.556,0l0.239,6.915l0.158,39.237l2.3,3.885l0,0.153c-3.329,0 -6.421,0.158 -9.671,0l0.079,-0.464l2.221,-3.731l-0.159,-54.074c-0.715,-1.321 -1.746,-2.564 -2.299,-4.041c3.011,-0.155 6.42,-0.155 9.353,-0.077l0.237,0.621l8.561,30.379c0.556,2.486 0.951,4.972 1.428,7.458c0.077,0.156 0.317,0.156 0.474,0.079l0.16,-0.312l-0.317,-7.07l-0.16,-27.037c-0.793,-1.321 -1.506,-2.642 -2.218,-4.041c3.089,-0.232 6.5,-0.155 9.511,-0.077Z" style="fill:#ae2100;fill-rule:nonzero;"/><path d="M307.687,10.19c-0.476,1.399 -1.585,2.719 -2.3,4.118l0.16,54.076l2.3,3.96l-0.16,0.078l-10.78,0l-0.08,-0.153c0.794,-1.4 1.586,-2.721 2.379,-4.12l-0.238,-53.996l-2.299,-3.885l0.08,-0.078c3.724,-0.078 7.449,-0.233 10.938,0Z" style="fill:#ae2100;fill-rule:nonzero;"/><path d="M275.266,10.268c-0.475,1.476 -1.743,2.719 -2.299,4.273l0,44.83c-0.317,5.283 -0.792,11.576 -6.42,13.752c-3.883,1.319 -9.037,0.931 -11.969,-2.176c-2.616,-2.798 -2.933,-6.604 -3.013,-10.489l-0.157,-46.15l-2.379,-3.885l0.159,-0.155c3.487,-0.156 7.292,-0.156 10.779,0l0,0.388l-2.298,3.808l0.159,48.014c0.316,2.408 0.397,5.284 3.012,6.293c1.585,0.389 3.726,0.466 4.994,-0.622c1.665,-1.553 1.823,-3.806 2.061,-5.982l0.079,-12.585l-0.158,-35.274l-2.299,-3.885l0.079,-0.155c3.091,-0.156 6.579,-0.156 9.67,0Z" style="fill:#ae2100;fill-rule:nonzero;"/><path d="M133.883,10.89l0,16.16c-0.237,0.233 -0.714,0.155 -1.11,0.155c-1.822,-4.04 -3.646,-8.158 -5.311,-12.276l-0.554,-0.155l-7.214,0.078l-0.079,0.233l0.079,23.93c1.031,0.233 2.299,0.155 3.41,0.078c1.822,-3.108 3.329,-6.448 5.231,-9.635c0.316,-0.078 0.792,-0.155 0.95,0.079c0.16,7.38 0.08,16.004 0.08,23.307c-1.03,0.467 -1.347,-0.622 -1.744,-1.244l-4.438,-8.001l-0.239,-0.155l-3.17,0.077l-0.159,0.389l0.159,24.784l2.219,4.118l-0.158,0.154l-10.701,0c0.554,-1.551 1.664,-2.875 2.299,-4.427l-0.159,-53.765l-2.378,-3.884l0,-0.234c7.768,-0.155 15.22,-0.077 22.829,-0.077l0.158,0.311Z" style="fill:#ae2100;fill-rule:nonzero;"/><path d="M110.578,10.89l0,18.49c-0.475,0.234 -0.951,0.157 -1.426,0.078l-4.201,-15.305l-0.159,-0.155l-3.487,0l-0.08,0.699l0.158,54.307l2.378,3.962l-0.713,0.078l-10.226,0l0,-0.31l2.299,-3.963l-0.238,-54.696c-1.03,-0.233 -2.536,-0.077 -3.646,-0.077l-0.158,0.466l-4.043,15.073c-0.396,0.077 -0.873,0.154 -1.268,0.077l-0.159,-0.544l0.079,-18.258l0.634,-0.156l21.403,-0.077l2.695,0.077l0.158,0.234Z" style="fill:#ae2100;fill-rule:nonzero;"/><path d="M239.676,64.964c-2.22,2.175 -5.073,2.952 -8.244,2.719l-0.238,-0.231l-0.08,-28.282c0.08,-0.544 0.951,-0.155 1.269,-0.388c3.329,0 6.421,1.476 8.085,4.272c1.268,2.253 1.903,4.74 2.22,7.304c0.237,5.205 0.475,10.723 -3.012,14.606ZM231.114,5.685c0.951,-0.311 2.22,-0.079 3.25,0c2.141,0.31 4.202,1.476 5.47,3.34c2.299,3.729 2.22,8.702 1.902,13.285c-0.476,3.73 -1.427,7.614 -4.914,9.712c-1.585,0.855 -3.488,1.089 -5.47,0.933l-0.158,-0.155l-0.08,-7.848l0,-19.267ZM238.09,35.907c0.952,-0.854 2.219,-1.01 3.17,-1.787c4.915,-3.108 7.532,-8.236 7.611,-13.829c0.158,-6.916 -1.11,-13.985 -7.372,-17.715l-2.536,-1.01c-5.391,-1.554 -11.495,-0.699 -17.519,-0.854l-0.159,0.155l2.537,4.584l0.159,62.387c-0.793,1.554 -1.824,3.109 -2.458,4.818l1.269,0.078c5.469,-0.233 11.018,0.698 15.933,-1.165c5.231,-1.478 9.433,-6.761 10.779,-11.734c1.586,-6.524 1.032,-14.139 -3.645,-19.111c-2.141,-2.409 -4.916,-3.729 -7.769,-4.817Z" style="fill:#ae2100;fill-rule:nonzero;"/><path d="M449.472,63.643c-0.395,2.098 -1.03,4.431 -3.169,5.517c-1.189,0.621 -2.933,0.388 -3.965,-0.389c-1.664,-1.319 -1.979,-3.263 -2.535,-5.128c-1.031,-6.215 -1.031,-12.663 -1.031,-19.346c0,-8.002 -0.318,-16.004 0.713,-23.929c0.476,-2.797 0.874,-6.37 4.042,-7.459c1.824,-0.388 3.568,0.234 4.519,1.865c2.299,4.35 1.982,9.945 2.299,15.073l0.08,16.082c0.078,6.138 0,11.966 -0.953,17.714ZM452.087,13.065c-2.059,-2.875 -5.388,-4.506 -9.036,-3.885c-4.437,0.621 -7.133,5.128 -8.482,8.779c-2.774,8.703 -2.853,18.492 -2.615,28.359c0.397,8.08 0.951,16.315 5.153,22.919c1.982,2.875 5.151,4.507 8.641,4.04c3.566,-0.233 6.339,-3.186 7.766,-6.061c3.41,-6.99 3.727,-15.537 3.885,-23.54c-0.079,-9.634 0.081,-20.045 -3.962,-28.358l-1.35,-2.253Z" style="fill:#ae2100;fill-rule:nonzero;"/><path d="M552.284,49.814c-1.983,0.699 -4.361,0.389 -6.105,-0.699l-0.079,-0.31l3.408,-21.445l0.635,-4.894c0.238,-0.156 0.712,-0.156 0.634,0.31l0.635,8.003c0.872,5.982 1.427,12.043 2.298,18.026c-0.238,0.543 -0.871,0.775 -1.426,1.009ZM561.956,67.528l-5.154,-37.215l-0.238,-2.875c-0.873,-4.584 -1.269,-9.323 -1.982,-13.984l1.982,-3.808l-0.08,-0.077c-3.486,-0.078 -6.976,-0.155 -10.622,0.077l0,0.155l1.746,3.653l-3.174,19.578l-5.627,34.34l-2.456,4.118l-0.081,0.389l8.958,0l0.159,-0.156l-2.142,-3.728l-0.158,-0.701c0.714,-4.505 1.347,-8.933 2.3,-13.361l0.158,-0.078c1.903,0.621 3.963,1.32 6.026,0.775c1.03,-0.154 1.901,-0.697 2.852,-0.697c0.793,4.35 1.268,8.933 1.824,13.439c-0.556,1.555 -1.665,2.875 -2.299,4.351l0.08,0.156l10.067,0l0.238,-0.156l-2.377,-4.195Z" style="fill:#ae2100;fill-rule:nonzero;"/><path d="M496.639,37.228c-1.111,0.389 -2.458,0.544 -3.726,0.389l-0.159,-0.545l0,-23.074c2.774,-0.156 5.389,0.388 7.134,2.564c2.377,3.495 2.298,8.39 1.743,12.664c-0.397,3.185 -1.666,6.681 -4.992,8.002ZM506.784,53.7c-0.08,-2.177 -0.396,-4.198 -0.951,-6.14c-0.794,-3.263 -3.805,-6.37 -7.213,-7.224c-0.081,-0.078 0,-0.078 0,-0.233c5.15,-1.71 9.432,-6.76 9.669,-12.121c0.397,-4.739 0,-9.401 -2.298,-13.208c-4.36,-6.06 -12.128,-4.973 -19.024,-5.128c-1.031,0.078 -2.06,-0.155 -2.933,0.155l2.378,4.041l0.079,54.074l-2.297,3.963l0.078,0.079c3.488,0.154 7.214,0.154 10.78,0l0.079,-0.235l-2.298,-3.807l-0.079,-24.006l0.079,-0.778c2.061,-0.078 4.2,0.544 5.468,2.332c2.536,4.66 1.348,10.953 1.824,16.392c0.319,3.652 0.476,7.536 3.408,10.102c1.904,0.076 4.36,0.076 6.342,-0.079c-0.554,-1.321 -1.426,-2.565 -1.823,-3.884c-1.587,-4.352 -0.714,-9.712 -1.268,-14.295Z" style="fill:#ae2100;fill-rule:nonzero;"/><path d="M152.036,64.499c-0.555,2.174 -1.189,4.893 -3.725,5.748c-1.586,0.234 -3.251,-0.233 -4.281,-1.553c-1.903,-2.72 -1.903,-6.216 -2.299,-9.479c-0.238,-4.195 -0.476,-8.623 -0.397,-12.664l0,-16.471c0.081,-4.04 0.476,-8.003 1.189,-11.81c0.556,-1.942 1.665,-4.506 4.123,-4.739c1.188,-0.156 2.299,0.156 3.17,0.933c1.903,2.408 2.299,5.438 2.616,8.546l0.396,6.604l0.08,17.326c0,5.75 0,11.964 -0.872,17.559ZM154.89,14.23c-1.268,-2.097 -3.568,-3.807 -5.945,-4.273c-3.648,-0.777 -6.976,0.777 -9.116,3.574c-4.361,6.216 -4.915,14.063 -5.391,21.91c-0.079,7.848 -0.237,16.004 1.11,23.463c0.871,4.351 1.982,8.702 4.994,12.275c2.141,2.409 5.39,3.418 8.798,2.798c4.043,-0.854 6.422,-4.973 7.689,-8.469c3.013,-8.78 2.854,-19.034 2.696,-28.902c-0.476,-7.847 -0.793,-15.927 -4.835,-22.376Z" style="fill:#ae2100;fill-rule:nonzero;"/><path d="M202.371,63.721c-1.031,2.098 -3.013,4.506 -5.549,4.818c-0.714,0.078 -1.585,0.155 -2.378,0l-0.159,-0.465l-0.079,-53.377c2.774,-0.311 5.627,0.776 7.134,3.262c3.092,5.284 3.25,11.888 3.567,18.181c0.079,9.324 0.635,19.346 -2.536,27.581ZM196.822,10.579c-3.488,-0.467 -7.61,-0.233 -11.256,-0.156l0,0.156l2.378,4.04l0.158,53.765c-0.792,1.475 -1.664,2.873 -2.378,4.272l0.08,0.156c3.17,-0.078 6.421,0.077 9.433,-0.078c4.914,-0.39 9.512,-3.03 12.048,-7.226c3.172,-5.438 4.28,-11.731 4.518,-18.336c0.159,-10.798 0.238,-21.754 -5.231,-30.378c-2.219,-3.496 -5.866,-5.516 -9.75,-6.215Z" style="fill:#ae2100;fill-rule:nonzero;"/><path d="M169.791,38.471c-0.554,-0.078 -1.426,0.233 -1.505,-0.466l0,-23.231c2.932,-0.233 5.865,0.621 7.451,3.03c1.902,3.186 1.902,7.303 1.586,11.188c-0.159,2.097 -0.635,4.04 -1.586,5.827c-1.11,2.176 -3.409,3.574 -5.946,3.652ZM182.237,53.855c-0.318,-4.662 -1.507,-9.713 -6.184,-11.966c-0.634,-0.31 -1.505,-0.466 -2.06,-0.854l0.08,-0.078c3.725,-1.476 7.609,-4.662 8.876,-8.624c1.428,-4.817 1.19,-10.567 -0.633,-15.073c-1.189,-2.796 -3.963,-5.282 -6.897,-5.982c-4.994,-1.321 -10.541,-0.777 -15.694,-0.777l-0.08,0.155l2.299,3.963l0.159,53.92c-0.713,1.475 -1.665,2.797 -2.299,4.273c3.725,0.077 7.293,0.077 10.86,-0.078c-0.635,-1.322 -1.506,-2.643 -2.299,-4.04l-0.079,-24.397l0.158,-0.387c0.555,-0.156 1.189,0.077 1.744,0.077c2.14,0.389 4.122,2.253 4.598,4.35c1.11,4.663 0.554,9.868 0.951,14.918c0.159,3.574 0.635,7.147 3.329,9.479l6.183,0.078l0.158,-0.156c-1.268,-2.175 -2.377,-4.429 -2.695,-6.915c-0.238,-3.962 -0.238,-7.923 -0.475,-11.886Z" style="fill:#ae2100;fill-rule:nonzero;"/><path d="M73.958,37.928c-1.349,0.776 -2.935,1.087 -4.44,0.776l-0.159,-0.311l0,-23.23l0.159,-0.156c2.854,-0.078 5.945,0.855 7.372,3.496c1.823,3.497 1.585,8.003 1.189,12.043c-0.476,2.875 -1.427,5.828 -4.121,7.382ZM81.567,47.017c-1.11,-2.72 -3.726,-4.894 -6.501,-5.516l-0.158,-0.155c3.171,-1.243 6.183,-3.418 7.926,-6.449c2.775,-5.05 2.378,-12.431 0.238,-17.637c-2.932,-6.681 -11.176,-6.604 -17.517,-6.526c-1.745,0.078 -3.25,0 -4.836,0.156c0.635,1.398 1.507,2.719 2.299,4.039l0.159,53.92c-0.635,1.476 -1.745,2.798 -2.3,4.351l10.623,0l0.237,-0.234c-0.792,-1.319 -1.585,-2.564 -2.299,-3.884l-0.079,-24.628c0.238,-0.544 1.03,-0.157 1.427,-0.157c1.982,0.312 4.043,1.555 4.597,3.575c1.428,4.195 0.952,9.09 1.269,13.673c0.159,4.196 0.159,8.702 3.408,11.578l6.103,0l0.159,-0.157c-1.347,-2.253 -2.456,-4.582 -2.695,-7.302c-0.793,-5.983 0.476,-13.131 -2.06,-18.647Z" style="fill:#ae2100;fill-rule:nonzero;"/><path d="M48.908,50.98c-2.14,0.932 -4.597,0.699 -6.659,-0.545l0.08,-1.32l2.853,-16.86c0.555,-2.718 0.635,-5.593 1.03,-8.468c0.319,-0.311 0.794,0 0.635,0.388l0.793,8.003l2.299,18.025c-0.08,0.466 -0.634,0.544 -1.031,0.777ZM51.524,20.601l-0.713,-5.904c0.475,-1.322 1.586,-2.409 1.902,-3.807c-3.329,-0.156 -6.817,0 -10.464,0l-0.317,0.155l1.824,3.652l-3.012,18.646l-5.866,35.584c-0.793,1.475 -1.824,2.796 -2.616,4.273l0.158,0.077c2.537,0 6.342,0.155 9.116,-0.077c-0.555,-1.553 -1.665,-2.798 -2.298,-4.273l2.14,-13.209l0.238,-0.543l2.219,0.699c2.299,0.7 4.598,0 6.659,-0.699l0.238,0.155c0.475,4.584 1.427,9.013 1.744,13.597l-2.3,4.196l0.079,0.077l9.909,0l0.396,-0.077l-2.298,-4.352l-6.738,-48.17Z" style="fill:#ae2100;fill-rule:nonzero;"/></g></svg>