<?xml version="1.0" encoding="utf-8"?>
<!-- Generator: Adobe Illustrator 15.1.0, SVG Export Plug-In . SVG Version: 6.00 Build 0)  -->
<!DOCTYPE svg PUBLIC "-//W3C//DTD SVG 1.1//EN" "http://www.w3.org/Graphics/SVG/1.1/DTD/svg11.dtd">
<svg version="1.1" id="Layer_OJP" xmlns="http://www.w3.org/2000/svg" xmlns:xlink="http://www.w3.org/1999/xlink" x="0px" y="0px"
	 preserveAspectRatio="xMidYMid meet" viewBox="29 260 760 86"
	 xml:space="preserve">
<polygon points="610,278.372 604.768,278.372 604.768,280.582 612.441,280.582 612.441,261.86 610,261.86 "/>
<polygon points="603.721,274.651 600.93,274.651 600.93,290.582 603.372,290.582 603.372,276.744 603.721,276.744 "/>
<path d="M150,267.558h-3.721v58.139c0,6.861-5.582,12.442-12.442,12.442c-1.977,0-3.954-0.465-5.698-1.396
	c-1.744,0.931-3.721,1.396-5.698,1.396c-3.256,0-6.396-1.279-8.837-3.721c-0.349-0.35-0.697-0.814-1.046-1.163
	c2.209,4.186,6.628,6.977,11.628,6.977c1.977,0,3.954-0.465,5.698-1.279c1.744,0.814,3.721,1.279,5.698,1.279
	c7.209,0,13.139-6.279,13.139-14.186v-56.396h3.721v-7.675H150V267.558L150,267.558z"/>
<polygon points="603.721,304.07 600.93,304.07 600.93,323.721 603.372,323.721 603.372,306.163 603.721,306.163 "/>
<path d="M270.814,267.558v-5.582h-2.093v5.582H265v39.535c0,14.651-4.186,26.163-11.279,30.931l-1.163,0.813l-1.163-0.813
	c-1.744-1.163-3.372-2.791-4.768-4.768c1.744,2.907,3.721,5.116,6.163,6.744l1.512,1.047l1.512-1.047
	c7.209-4.884,11.512-16.628,11.512-31.512v-38.837h7.093v-2.093H270.814L270.814,267.558z"/>
<path d="M231.163,272.907v58.14h2.442v-56.628c0-5.814-3.837-10.814-9.07-12.442C228.488,264.07,231.163,268.14,231.163,272.907z"/>
<polygon points="610,307.791 604.768,307.791 604.768,310 612.441,310 612.441,287.674 610,287.674 "/>
<rect x="123.488" y="262.093" width="2.442" height="3.605"/>
<path d="M328.837,273.721v57.326h2.442v-55.931c0-5.814-3.837-10.814-9.07-12.442C326.163,264.768,328.837,268.954,328.837,273.721z
	"/>
<rect x="107.442" y="267.558" width="2.558" height="2.093"/>
<path d="M641.744,273.604v57.326h2.441V275c0-5.814-3.837-10.814-9.069-12.442C639.069,264.651,641.744,268.837,641.744,273.604z"/>
<rect x="648.721" y="267.442" width="2.559" height="2.093"/>
<polygon points="297.093,337.325 271.86,337.325 271.86,339.535 299.535,339.535 299.535,321.047 297.093,321.047 "/>
<polygon points="548.023,278.372 542.791,278.372 542.791,280.582 550.465,280.582 550.465,261.86 548.023,261.86 "/>
<rect x="552.209" y="267.442" width="2.559" height="2.093"/>
<polygon points="103.14,278.488 97.907,278.488 97.907,280.698 105.582,280.698 105.582,262.093 103.14,262.093 "/>
<rect x="237.442" y="267.558" width="2.558" height="2.093"/>
<polygon points="541.628,304.07 538.953,304.07 538.953,323.721 541.279,323.721 541.279,306.163 541.628,306.163 "/>
<polygon points="235,331.86 235,337.325 202.674,337.325 202.674,331.86 200.349,331.86 200.349,337.325 169.186,337.325 
	169.186,339.535 237.442,339.535 237.442,331.86 "/>
<polygon points="572.093,337.209 552.209,337.209 552.209,339.419 574.535,339.419 574.535,331.744 572.093,331.744 "/>
<polygon points="548.023,307.791 542.791,307.791 542.791,310 550.465,310 550.465,287.674 548.023,287.674 "/>
<polygon points="548.023,337.209 522.791,337.209 522.791,339.419 550.465,339.419 550.465,320.814 548.023,320.814 "/>
<rect x="584.884" y="267.442" width="2.558" height="2.093"/>
<polygon points="200.349,267.558 196.628,267.558 196.628,331.047 199.07,331.047 199.07,269.651 202.791,269.651 202.791,262.093 
	200.349,262.093 "/>
<polygon points="610,337.209 584.884,337.209 584.884,339.419 612.441,339.419 612.441,320.814 610,320.814 "/>
<rect x="169.186" y="267.558" width="2.558" height="2.093"/>
<path d="M573.14,262.558c3.953,2.093,6.628,6.279,6.628,11.046v26.163c0,6.396-4.768,11.163-11.396,11.628v19.535h2.442v-17.442
	c6.627-0.813,11.395-5.813,11.395-12.326V275C582.209,269.186,578.372,264.302,573.14,262.558z"/>
<rect x="522.791" y="267.442" width="2.558" height="2.093"/>
<rect x="681.279" y="267.442" width="2.558" height="2.093"/>
<polygon points="706.396,278.372 701.279,278.372 701.279,280.582 708.837,280.582 708.837,261.86 706.396,261.86 "/>
<path d="M738.14,273.604v57.326h2.441V275c0-5.814-3.837-10.814-9.069-12.442C735.465,264.651,738.14,268.837,738.14,273.604z"/>
<polygon points="700.116,274.651 697.325,274.651 697.325,290.582 699.768,290.582 699.768,276.744 700.116,276.744 "/>
<polygon points="332.558,337.325 301.396,337.325 301.396,339.535 335,339.535 335,331.86 332.558,331.86 "/>
<polygon points="103.14,321.047 103.14,322.325 103.14,337.325 76.86,337.325 76.86,331.86 74.768,331.86 74.768,337.325 
	43.488,337.325 43.488,339.535 105.582,339.535 105.582,321.047 "/>
<path d="M483.256,273.604v57.326h2.441V275c0-5.814-3.837-10.814-9.069-12.442C480.465,264.651,483.256,268.837,483.256,273.604z"/>
<polygon points="290.698,274.768 288.023,274.768 288.023,290.698 290.465,290.698 290.465,276.86 290.698,276.86 "/>
<rect x="490.232" y="267.442" width="2.559" height="2.093"/>
<rect x="78.023" y="267.558" width="2.558" height="2.093"/>
<polygon points="773.837,280.582 773.837,261.86 771.396,261.86 771.396,278.372 765,278.372 765,274.651 763.837,274.651 
	763.837,330.931 766.279,330.931 766.279,280.582 "/>
<polygon points="767.441,337.209 747.675,337.209 747.675,339.419 769.884,339.419 769.884,331.744 767.441,331.744 "/>
<polygon points="741.977,337.209 710.697,337.209 710.697,339.419 744.419,339.419 744.419,331.744 741.977,331.744 "/>
<path d="M71.046,273.721v57.326h2.442v-55.931c0-5.814-3.837-10.814-9.07-12.442C68.256,264.768,71.046,268.954,71.046,273.721z"/>
<polygon points="297.093,278.488 291.86,278.488 291.86,280.698 299.535,280.698 299.535,262.093 297.093,262.093 "/>
<polygon points="290.698,304.186 288.023,304.186 288.023,323.837 290.465,323.837 290.465,306.279 290.698,306.279 "/>
<polygon points="749.069,274.651 749.069,278.372 743.837,278.372 743.837,280.582 750.349,280.582 750.349,274.651 "/>
<polygon points="297.093,307.907 291.86,307.907 291.86,310.116 299.535,310.116 299.535,287.791 297.093,287.791 "/>
<polygon points="541.628,274.651 538.953,274.651 538.953,290.582 541.279,290.582 541.279,276.744 541.628,276.744 "/>
<path d="M511.512,262.558c3.721,1.977,6.163,5.698,6.163,10.232v51.977c0,3.372-1.279,6.512-3.605,8.837
	c-2.325,2.326-5.465,3.604-8.837,3.604h-16.163v-5.581h-2.209v5.581h-32.209v-5.581h-2.21v5.581h-19.883v2.094h74.418
	c7.209,0,13.14-5.931,13.14-13.14v-51.861C520.116,268.721,516.628,264.302,511.512,262.558z"/>
<polygon points="103.14,307.907 97.907,307.907 97.907,310.116 105.582,310.116 105.582,287.791 103.14,287.791 "/>
<polygon points="96.86,274.768 94.07,274.768 94.07,290.698 96.512,290.698 96.512,276.86 96.86,276.86 "/>
<path d="M670,262.558c3.721,1.977,6.163,5.698,6.163,10.232v51.977c0,3.372-1.279,6.512-3.604,8.837
	c-2.326,2.326-5.466,3.604-8.838,3.604h-16.162v-5.581h-2.094v5.581h-31.279v2.094h51.163c7.21,0,13.14-5.931,13.14-13.14v-51.861
	C678.604,268.721,675.116,264.302,670,262.558z"/>
<polygon points="706.396,337.209 681.279,337.209 681.279,339.419 708.837,339.419 708.837,320.814 706.396,320.814 "/>
<polygon points="700.116,304.07 697.325,304.07 697.325,323.721 699.768,323.721 699.768,306.163 700.116,306.163 "/>
<polygon points="452.441,267.442 448.721,267.442 448.721,330.931 451.163,330.931 451.163,269.535 454.884,269.535 454.884,261.86 
	452.441,261.86 "/>
<polygon points="96.86,304.186 94.07,304.186 94.07,323.837 96.512,323.837 96.512,306.279 96.86,306.279 "/>
<polygon points="706.396,307.791 701.279,307.791 701.279,310 708.837,310 708.837,287.674 706.396,287.674 "/>
<rect x="432.559" y="267.442" width="2.558" height="2.093"/>
<path fill="#34425A" d="M724.651,272.558h1.046c0.582,0,1.047,0.465,1.047,1.046v61.512h13.023v-2.093h-3.721v-59.419
	c0-5.581-4.535-10.349-10.35-10.349h-10.349v69.768h-3.604v2.093h12.907V272.558L724.651,272.558z"/>
<path fill="#34425A" d="M469.651,272.558h1.046c0.582,0,1.047,0.465,1.047,1.046v61.512h13.14v-2.093h-3.721v-59.419
	c0-5.581-4.535-10.349-10.35-10.349h-10.349v69.768h-3.604v2.093h12.907v-62.558H469.651z"/>
<path fill="#34425A" d="M515.581,324.768v-51.977c0-5.581-4.651-9.651-10.349-9.651h-13.953v2.093h3.604v67.675h-3.604V335h13.953
	C511.047,335.116,515.581,330.581,515.581,324.768z M504.186,272.558h1.047c0.581,0,1.047,0.465,1.047,1.046v51.279
	c0,0.581-0.466,1.047-1.047,1.047h-1.047V272.558z"/>
<polygon fill="#34425A" points="450.349,333.023 446.628,333.023 446.628,265.349 450.349,265.349 450.349,263.256 433.604,263.256 
	433.604,265.349 437.325,265.349 437.325,333.023 433.604,333.023 433.604,335.116 450.349,335.116 "/>
<path fill="#34425A" d="M628.256,272.558h1.047c0.581,0,1.046,0.465,1.046,1.046v61.512h13.023v-2.093h-3.721v-59.419
	c0-5.581-4.651-10.349-10.349-10.349h-10.35v69.768h-3.604v2.093h12.907V272.558z"/>
<path fill="#34425A" d="M674.069,324.768v-51.977c0-5.581-4.534-9.651-10.349-9.651h-13.953v2.093h3.604v67.675h-3.604V335h13.953
	C669.419,335.116,674.069,330.581,674.069,324.768z M662.675,272.558h1.046c0.582,0,1.047,0.465,1.047,1.046v51.279
	c0,0.581-0.465,1.047-1.047,1.047h-1.046V272.558z"/>
<polygon fill="#34425A" points="702.209,276.279 704.303,276.279 704.303,263.256 682.325,263.256 682.325,265.349 685.931,265.349 
	685.931,333.023 682.325,333.023 682.325,335.116 704.303,335.116 704.303,322.209 702.209,322.209 702.209,325.814 
	695.232,325.814 695.232,301.977 702.209,301.977 702.209,305.697 704.303,305.697 704.303,288.954 702.209,288.954 
	702.209,292.674 695.232,292.674 695.232,272.558 702.209,272.558 "/>
<polygon fill="#34425A" points="605.813,276.279 607.907,276.279 607.907,263.256 585.813,263.256 585.813,265.349 589.535,265.349 
	589.535,333.023 585.813,333.023 585.813,335.116 607.907,335.116 607.907,322.209 605.813,322.209 605.813,325.814 
	598.837,325.814 598.837,301.977 605.813,301.977 605.813,305.697 607.907,305.697 607.907,288.954 605.813,288.954 
	605.813,292.674 598.837,292.674 598.837,272.558 605.813,272.558 "/>
<polygon fill="#34425A" points="761.744,272.558 767.209,272.558 767.209,276.279 769.186,276.279 769.186,263.256 744.884,263.256 
	744.884,276.279 746.977,276.279 746.977,272.558 752.441,272.558 752.441,333.023 748.721,333.023 748.721,335.116 
	765.349,335.116 765.349,333.023 761.744,333.023 "/>
<path fill="#34425A" d="M566.279,309.303c0,0,0.697,0,1.046,0c5.698,0,10.35-3.838,10.35-9.651v-26.047
	c0-5.581-4.651-10.349-10.35-10.349h-13.953v2.093h3.604v67.675h-3.604v2.093h16.744v-2.093h-3.837V309.303z M566.279,272.558h1.046
	c0.582,0,1.047,0.465,1.047,1.046v25.465c0,0.582-0.465,1.046-1.047,1.046h-1.046V272.558z"/>
<polygon fill="#34425A" points="543.837,276.279 545.813,276.279 545.813,263.256 523.837,263.256 523.837,265.349 527.441,265.349 
	527.441,333.023 523.837,333.023 523.837,335.116 545.813,335.116 545.813,322.209 543.837,322.209 543.837,325.814 
	536.744,325.814 536.744,301.977 543.837,301.977 543.837,305.697 545.813,305.697 545.813,288.954 543.837,288.954 
	543.837,292.674 536.744,292.674 536.744,272.558 543.837,272.558 "/>
<path fill="#34425A" d="M315.349,272.674h1.047c0.581,0,1.046,0.465,1.046,1.046v61.512h13.023v-2.093h-3.721v-59.419
	c0-5.581-4.651-10.349-10.349-10.349h-10.349v69.768h-3.721v2.093h12.907L315.349,272.674L315.349,272.674z"/>
<path fill="#34425A" d="M252.442,336.279c6.163-4.187,10.349-14.884,10.349-29.187v-41.627h3.721v-2.093h-13.023v43.604
	c0,5.698-0.349,10.931-1.046,13.721c-0.582-2.674-1.046-7.906-1.046-13.721v-43.604h-12.907v2.093h3.605v41.627
	C242.093,321.396,246.046,332.093,252.442,336.279z"/>
<polygon fill="#34425A" points="292.907,276.396 295,276.396 295,263.372 272.907,263.372 272.907,265.465 276.628,265.465 
	276.628,333.14 272.907,333.14 272.907,335.232 295,335.232 295,322.325 292.907,322.325 292.907,325.931 285.93,325.931 
	285.93,302.093 292.907,302.093 292.907,305.814 295,305.814 295,289.186 292.907,289.186 292.907,292.791 285.93,292.791 
	285.93,272.674 292.907,272.674 "/>
<path fill="#34425A" d="M122.442,336.047c2.093,0,4.07-0.582,5.698-1.744c1.512,1.162,3.604,1.744,5.581,1.744
	c5.698,0,10.349-4.651,10.349-10.35v-60.232h3.721v-2.093h-12.907v62.442c0,0.465-0.465,1.046-1.046,1.046
	c-0.465,0-1.047-0.465-1.047-1.046v-57.907h-9.302v57.907c0,0.465-0.465,1.046-1.046,1.046c-0.465,0-1.046-0.465-1.046-1.046
	v-62.442h-12.907v2.093h3.604v60.349C112.093,331.396,116.86,336.047,122.442,336.047z"/>
<polygon fill="#34425A" points="98.954,276.396 101.046,276.396 101.046,263.372 78.954,263.372 78.954,265.465 82.674,265.465 
	82.674,333.14 78.954,333.14 78.954,335.232 101.046,335.232 101.046,322.325 98.954,322.325 98.954,325.931 91.977,325.931 
	91.977,302.093 98.954,302.093 98.954,305.814 101.046,305.814 101.046,289.186 98.954,289.186 98.954,292.791 91.977,292.791 
	91.977,272.674 98.954,272.674 "/>
<path fill="#34425A" d="M57.442,272.674h1.046c0.582,0,1.046,0.465,1.046,1.046v61.512h13.023v-2.093h-3.721v-59.419
	c0-5.581-4.651-10.349-10.349-10.349H48.14v69.768h-3.605v2.093h12.907V272.674L57.442,272.674z"/>
<path fill="#34425A" d="M217.674,307.441h2.093v27.907h13.023v-2.093h-3.721v-60.349c0-5.582-4.651-10.349-10.349-10.349
	c-5.581,0-10.349,4.651-10.349,10.349v60.232h-3.604v2.093h12.907V307.441L217.674,307.441z M217.674,272.907
	c0-0.465,0.465-1.047,1.046-1.047c0.582,0,1.047,0.465,1.047,1.047v25.116h-2.093V272.907L217.674,272.907z"/>
<polygon fill="#34425A" points="183.14,302.326 185.232,302.326 185.232,335.232 198.256,335.232 198.256,333.14 194.535,333.14 
	194.535,265.465 198.256,265.465 198.256,263.372 185.232,263.372 185.232,293.14 183.14,293.14 183.14,263.372 170.116,263.372 
	170.116,265.465 173.837,265.465 173.837,333.14 170.116,333.14 170.116,335.232 183.14,335.232 "/>
<radialGradient id="SVGID_1_" cx="324.9834" cy="1434.8301" r="17.8696" gradientTransform="matrix(1.1628 0 0 1.1628 3.9186 -1378.1738)" gradientUnits="userSpaceOnUse">
	<stop  offset="0.4479" style="stop-color:#FFFFFF"/>
	<stop  offset="0.9315" style="stop-color:#FFFFFF;stop-opacity:0.1241"/>
	<stop  offset="1" style="stop-color:#FFFFFF;stop-opacity:0"/>
</radialGradient>
<circle fill="url(#SVGID_1_)" cx="381.86" cy="290.233" r="20.814"/>
<path fill="#34425A" d="M402.093,286.396c0,0-1.977,1.395-3.023,1.744c-0.581,0.232-0.581-0.232-0.813-0.582
	c-0.931,3.372,0.581,7.791,0.465,10.116c-2.093,1.396-4.302,3.14-6.279,4.884c0.582,9.302-0.349,18.022-0.582,27.325
	c-0.232,3.14-0.582,6.163-0.582,9.069c0,0.582,1.745,2.21,1.396,3.14c-0.232,1.163-1.279,1.86-3.14,1.163
	c-0.814-0.349-2.558-2.209-2.209-3.372c0-0.232,0.581-0.232,0.581-0.581c0-0.582-0.814-0.582-1.163-0.814
	c-1.744-5.349-2.326-10.349-3.721-16.396c-0.117-0.581-3.023-0.116-3.256,0.466c-0.814,5.581-0.582,9.302-0.93,11.744
	c0,0.813-0.582,1.395-1.163,2.209c-0.232,1.163,0.814,1.744,0.814,2.791c-0.232,1.744-4.418,3.953-6.396,3.953
	c-0.813,0-1.046-0.814-1.163-1.744c0.582,0,0-0.814,0.582-0.814c0,0.233-0.232,1.163,0.232,1.163c0.814-0.232,4.07-2.558,3.023-3.14
	c-0.233,0-0.582,0-0.582,0c-0.814-5.581-1.396-11.046-2.791-16.628c-0.233-1.396-3.14,0-3.721-1.396
	c-0.814-2.79,0.582-5.581,0-8.488c0-0.813-1.163,0.814-1.395,0.232c-1.396-2.79,0.581-5.116-1.745-7.558c-0.232,0-0.814,0-1.163,0
	c-1.163-0.813-1.396-2.791-1.163-4.187c0.581,0.814,0,3.141,1.395,3.721c0.233-1.395,1.977-1.046,1.977-2.441
	c0-0.581-1.861-0.116-1.744-0.349c1.163,0,2.558-0.232,3.139,0.813c0.233,0.814-0.814,2.21-1.395,1.977
	c0.581,2.559,0.232,4.535,0.814,7.094c2.442-1.279,5-2.791,7.907-3.604c3.256-0.931,8.488-1.163,9.651-1.163
	c0.232,0,0.232-12.093-0.233-18.023c-9.069-4.535-16.395,4.768-23.953,8.14c0.581,1.977,2.791,2.209,3.953,3.722
	c0.233,0.232,1.163-0.233,1.396,0.232c-0.582,0-1.163,0.232-1.744,0c-0.814-0.582-2.558-1.396-2.558-1.396l-2.442-2.791l5.582-4.302
	c0.465-0.93,0.698-2.442,1.046-3.256c1.163-3.372,2.209-7.093,4.186-10.465c-1.163,3.954-2.791,7.558-4.186,11.512
	c-0.232,0.582,0.232,1.163,0.582,1.163c1.395-1.163,3.372-1.744,4.186-3.14c1.395-2.558,0.814-5.93,2.209-8.488
	c-0.232,2.558-1.395,5.581-1.163,8.139c3.954-1.744,8.488-2.558,12.442-0.232c1.744-1.977,3.954-3.954,4.186-6.163
	c0-0.582-1.163-1.744-1.977-2.558c-0.116,0.232-0.581,0.814-0.581,0.814l-0.814-0.233l-0.116-0.581l0.814,0.232
	c0,0,0.697-1.163,0.465-1.396c-0.698-0.465-2.209-1.628-2.674-1.163c0.116-0.465,0-0.93-0.116-1.396
	c-0.814,1.396-2.558,1.744-3.721,0.582c-0.232-0.232-0.814-0.349-1.163-0.814c-0.349-0.465-0.814-0.698-1.279-0.814
	c-1.163-0.232-2.093,0-3.837-0.93c-1.744-1.046-1.396-2.442-0.582-3.721c0.349-0.465,0.582-1.046,1.163-1.395
	c0.581-0.233,0,0.581,0.581,0.581c-0.232,1.744-2.791,2.791-0.581,4.186c3.372,1.977,7.907,0.814,10.465-2.209
	c0,0-0.814-0.814-1.046-1.046c-2.558-0.117-5.465,0.697-8.023,1.279c0.233-0.582-0.232-0.814-0.232-1.396
	c1.163-0.232,3.721-0.581,3.954-1.163c0.581-1.396,1.163-2.209,1.977-3.372c0-0.232-0.582-0.232-0.814-0.232
	c0.232,0,0.582-0.814,1.163-0.582c0.233,0.232,0.233,1.163,0.814,1.163c1.163-0.116,0.93-0.581,0.349-1.163
	c1.163,0,2.093,0.232,2.791,0.93c-0.93,0.116-2.674-0.232-3.14,0.698c-0.116,0.232,0.233,0.582,0.582,0.582
	c0.698,0,2.209,0.116,2.209,0.116s0.581-0.233,1.163-0.698c0.814,1.396,0,2.791-0.814,3.954c-0.465,0.697-1.163,1.511-1.628,1.977
	c-0.116,0.349,0,0.698,0.465,1.046c0.232,0.116,0.93,0.349,0.93,0.349s0.698,0,0.93-0.116c1.396-0.465,2.791-0.814,4.186-0.814
	c1.744,0,4.535,2.791,4.535,2.791s3.837-2.442,6.047-3.954l0.116,0.116c0,0-9.302,5.582-12.674,10.698
	c0,0.232,0.232,0.582,0.232,0.582c3.954-4.186,8.489-7.326,13.255-10.465c-0.232,2.791-3.372,5.93-1.744,8.14
	c0.582,0.814,2.559,1.977,2.791,3.14C402.675,284.07,402.093,286.396,402.093,286.396L402.093,286.396z M381.046,285.349
	c-2.326-2.093-2.558-5.814-3.14-8.837c0.349,1.163,0.814,2.209,1.512,3.14c0.814-0.814,0.582-2.209,1.163-2.559
	c1.163-0.581,0.581,1.977,1.163,1.396c0.232-0.232,0.582-0.465,0.814-0.93C381.628,280.116,380.814,282.558,381.046,285.349
	L381.046,285.349z M377.791,276.512c-0.116-0.232-0.116-0.582-0.232-0.814C377.674,276.046,377.791,276.279,377.791,276.512
	L377.791,276.512z M382.674,276.628c0-0.116,0.116-0.232,0.116-0.232c-0.116,0.465-0.232,0.93-0.465,1.395
	C382.558,277.326,382.674,276.977,382.674,276.628L382.674,276.628z M379.07,264.884c0-0.232,0-0.465-0.232-0.465
	c-1.163,0-3.14,0.814-2.791,1.744c0,0.582,1.396-0.232,1.977-0.232c-1.047,0.465-2.791,0.814-3.954,1.163
	c0.582-1.977,3.721-2.791,5.698-2.558C379.418,264.535,379.186,264.768,379.07,264.884L379.07,264.884z M378.488,265.582
	c0.116-0.116,0.349-0.465,0.582-0.698V265C378.721,265.349,378.721,265.349,378.488,265.582L378.488,265.582z M381.86,284.535
	l2.674-4.535l0.698,0.349L381.86,284.535L381.86,284.535z M413.953,315.232l-0.349,2.442l-7.093-8.256l-0.814,3.14l-7.209-8.954
	l2.209-1.396l5,5.116l0.116-2.209l5.814,6.396l0.93-2.326l7.21,12.907L413.953,315.232L413.953,315.232z M428.604,270.93
	l-8.488,4.418l3.953,0.698l-10.465,4.07l2.559,0.116l-9.535,4.651l-1.163-3.023l5-2.209l-1.396-1.163l6.744-2.209l-1.744-0.931
	L428.604,270.93L428.604,270.93z M424.651,294.651l-9.419-1.047l2.791,2.093l-9.303-0.93l1.86,1.163l-8.721-0.582l-0.232-2.441
	l5,0.349l-0.698-1.512l5.814,0.93l-1.047-1.395L424.651,294.651L424.651,294.651z M363.488,285.232l-1.744,3.488l-4.186-3.255
	l0.698,2.442l-6.279-3.954l0.698,2.209l-16.163-10.349l13.721,5.582l-1.512-2.791l7.442,3.721l-0.697-1.977L363.488,285.232
	L363.488,285.232z M357.093,310.116l2.093,0.349L353.604,315l2.442,0.232l-12.674,7.791l7.093-6.396l-1.977,0.116l4.884-5.116
	h-2.442l7.674-6.744l0.93,2.675L357.093,310.116L357.093,310.116z M358.372,293.604l-2.093,2.907l-3.837,0.581l1.86,1.396
	l-5.698,0.93l1.628,1.164l-12.093,0.348l7.558-1.627l-1.512-0.698l5.465-1.628l-1.744-1.046L358.372,293.604L358.372,293.604z"/>
<rect x="17.333" y="246.512" fill="none" width="782" height="108"/>
</svg>
