<?xml version="1.0" standalone="no"?><!DOCTYPE svg PUBLIC "-//W3C//DTD SVG 1.1//EN" "http://www.w3.org/Graphics/SVG/1.1/DTD/svg11.dtd"><svg width="100%" height="100%" viewBox="0 0 111 30" version="1.1" xmlns="http://www.w3.org/2000/svg" xmlns:xlink="http://www.w3.org/1999/xlink" xml:space="preserve" style="fill-rule:evenodd;clip-rule:evenodd;stroke-linejoin:round;stroke-miterlimit:1.41421;"><path d="M79.471,28.094c-2.352,0 -3.147,-1.984 -3.147,-4.034c0,-1.185 0.236,-4.054 2.436,-4.054c0.733,0 1.726,0.498 1.94,2.136l0.624,0c0.066,-0.453 0.239,-1.336 0.779,-2.458c-0.561,-0.389 -1.51,-1.014 -3.474,-1.014c-1.509,0 -5.909,0.517 -5.909,5.694c0,2.672 1.575,5.368 5.629,5.368c1.749,0 2.739,-0.518 3.107,-0.798c0.279,-0.732 0.388,-1.011 0.668,-1.465l-0.431,-0.432c-1.144,0.992 -1.77,1.057 -2.222,1.057M88.679,27.166c-0.151,0.605 -0.604,0.949 -1.208,0.949c-1.142,0 -1.294,-0.949 -1.294,-1.596c0,-1.509 0.562,-2.026 2.609,-2.458c0.001,2.049 0.001,2.674 -0.107,3.105M92.646,28.397c-0.733,0 -0.733,-0.713 -0.733,-1.511c0,-2.156 0.109,-3.601 0.109,-4.637c0,-0.905 -0.175,-1.833 -0.906,-2.48c-0.885,-0.776 -2.093,-1.035 -3.235,-1.035c-1.12,0 -2.631,0.259 -4.097,1.423c0.215,0.387 0.324,0.905 0.389,1.359l0.042,0.021c0.411,-0.388 1.229,-1.144 2.675,-1.144c1.27,0 1.94,0.647 1.94,1.856c0,0.582 -0.019,0.67 -1.53,1.121c-2.89,0.864 -4.315,1.317 -4.315,3.559c0,1.249 0.671,2.91 3.063,2.91c1.791,0 2.524,-0.927 2.954,-1.487c0.151,0.409 0.583,1.403 2.048,1.403c0.95,0 1.876,-0.475 2.308,-0.756c-0.044,-0.281 -0.044,-0.561 0,-0.862c-0.172,0.173 -0.473,0.259 -0.712,0.259M98.213,19.059c0,-0.734 0.172,-2.569 0.259,-3.84l-0.259,-0.192c-0.604,0.345 -1.723,1.014 -3.407,1.595c0.02,0.819 0.063,1.487 0.063,2.437c-0.322,0 -0.818,-0.065 -1.358,-0.11c0.043,0.216 0.087,0.368 0.087,0.67c0,0.324 -0.021,0.495 -0.087,0.711c0.431,-0.044 0.95,-0.109 1.358,-0.109c0,1.791 -0.085,4.636 -0.085,6.427c0,1.099 0.129,1.748 0.71,2.351c0.519,0.54 1.231,0.819 2.157,0.819c0.776,0 1.425,-0.193 2.373,-0.495c-0.021,-0.11 -0.066,-0.302 -0.066,-0.518c0.001,-0.172 0.023,-0.344 0.066,-0.539c-0.238,0.107 -0.583,0.195 -0.841,0.195c-1.058,0 -1.058,-0.972 -1.058,-2.265c0,-1.856 0.023,-4.141 0.088,-5.975c0.495,0 1.228,0.065 1.853,0.109c-0.042,-0.151 -0.084,-0.365 -0.084,-0.711c0,-0.301 0.042,-0.454 0.084,-0.67c-0.645,0.045 -1.379,0.11 -1.853,0.11M104.273,23.155c-0.046,-2.696 0.926,-3.408 1.788,-3.408c1.1,0 1.532,0.863 1.553,3.408l-3.341,0ZM106.148,18.714c-2.762,0 -5.412,1.487 -5.412,5.521c0,3.254 1.962,5.584 5.541,5.584c0.776,0 2.481,-0.131 3.795,-1.058c0.108,-0.409 0.237,-0.883 0.561,-1.573l-0.388,-0.366c-1.057,1.143 -2.2,1.23 -2.845,1.23c-2.891,0 -3.149,-2.31 -3.127,-3.645c1.421,-0.066 2.004,-0.087 2.91,-0.087c1.251,0 2.502,0.021 3.753,0.087c0.021,-0.195 0.064,-0.605 0.064,-0.863c0,-2.696 -1.487,-4.83 -4.852,-4.83M42.941,28.352c-1.812,0 -2.026,-2.61 -2.026,-3.882c0,-2.393 0.495,-4.184 2.092,-4.184c1.812,0 2.006,2.523 2.006,3.905c-0.001,1.315 -0.218,4.161 -2.072,4.161M48.351,13.638l-3.412,1.516c0.072,1.405 0.074,3.064 0.074,4.94c-0.518,-0.518 -1.359,-1.337 -3.171,-1.337c-3.148,0 -4.551,2.653 -4.551,5.542c0.001,3.147 1.576,5.499 4.703,5.499c1.79,0 2.457,-0.82 3.105,-1.746l-0.107,1.445c0.366,-0.044 1.057,-0.109 1.68,-0.109c0.627,0 1.339,0.066 1.725,0.11c-0.105,-1.101 -0.172,-1.985 -0.172,-5.391c0,-3.064 0.022,-6.795 0.281,-10.482c-0.054,0.005 -0.103,0.007 -0.155,0.013M65.649,28.718c-2.028,0 -2.092,-3.149 -2.092,-4.507c0,-1.402 0.042,-4.485 2.112,-4.485c2.07,0 2.138,2.868 2.138,4.334c-0.001,2.201 -0.368,4.658 -2.158,4.658M65.649,18.67c-4.121,0 -5.693,2.631 -5.693,5.565c0,3.234 2.005,5.542 5.693,5.542c3.837,0 5.757,-2.547 5.757,-5.716c0,-3.17 -1.877,-5.391 -5.757,-5.391M31.973,27.166c-0.151,0.605 -0.604,0.949 -1.209,0.949c-1.141,0 -1.294,-0.949 -1.294,-1.596c0,-1.509 0.563,-2.026 2.61,-2.458c0.001,2.049 0.001,2.674 -0.107,3.105M35.943,28.397c-0.734,0 -0.734,-0.713 -0.734,-1.511c0,-2.156 0.107,-3.601 0.107,-4.637c0,-0.905 -0.172,-1.833 -0.904,-2.48c-0.885,-0.776 -2.093,-1.035 -3.234,-1.035c-1.123,0 -2.631,0.259 -4.098,1.423c0.216,0.387 0.323,0.905 0.388,1.359l0.044,0.021c0.408,-0.388 1.228,-1.144 2.673,-1.144c1.272,0 1.941,0.647 1.941,1.856c0,0.582 -0.023,0.67 -1.531,1.121c-2.891,0.864 -4.313,1.317 -4.313,3.559c0,1.249 0.667,2.91 3.062,2.91c1.79,0 2.522,-0.927 2.955,-1.487c0.15,0.409 0.581,1.403 2.047,1.403c0.948,0 1.878,-0.475 2.307,-0.756c-0.042,-0.281 -0.042,-0.561 0,-0.862c-0.171,0.173 -0.475,0.259 -0.71,0.259M59.006,18.994c-0.302,0 -0.775,-0.022 -1.273,-0.108c-0.604,2.2 -0.689,2.436 -2.307,7.115c-0.949,-2.911 -1.724,-5.349 -2.113,-7.115c-0.647,0.108 -1.315,0.108 -1.963,0.108c-0.69,0 -1.38,0 -2.069,-0.108c1.335,2.976 3.235,8.258 3.838,10.61c0.454,-0.067 0.927,-0.109 1.381,-0.109c0.474,0 0.947,0.043 1.401,0.109c0.215,-0.778 0.302,-1.144 1.1,-3.215l1.94,-5.067c0.391,-1.056 0.82,-1.832 1.099,-2.328c-0.344,0.043 -0.688,0.108 -1.034,0.108" style="fill:#124d87;fill-rule:nonzero;"/><path d="M55.888,14.91c-1.927,0 -1.988,-2.992 -1.988,-4.283c0,-1.333 0.041,-4.264 2.007,-4.264c1.969,0 2.031,2.726 2.031,4.119c0,2.092 -0.35,4.428 -2.05,4.428M55.888,5.359c-3.914,0 -5.412,2.5 -5.412,5.288c0,3.074 1.907,5.267 5.412,5.267c3.648,0 5.472,-2.419 5.472,-5.431c0,-3.013 -1.783,-5.124 -5.472,-5.124M50.538,0.081c-0.431,-0.081 -0.739,-0.081 -0.902,-0.081c-1.865,0 -3.999,1.352 -4.49,5.412c-0.429,0 -0.84,-0.021 -1.271,-0.104c0.022,0.246 0.083,0.451 0.083,0.658c0,0.224 -0.061,0.428 -0.083,0.654c0.534,-0.082 0.718,-0.082 1.252,-0.102l0,4.816c0,0.599 -0.006,1.196 -0.027,1.795l3.184,-1.415c0,-0.174 0,-0.348 0,-0.523l0,-4.673c0.635,0.02 1.557,0.081 1.659,0.103c-0.061,-0.205 -0.081,-0.43 -0.081,-0.655c0,-0.225 0.041,-0.516 0.081,-0.657c-0.718,0.104 -1.331,0.104 -1.763,0.104c-0.655,-1.007 -1.004,-1.867 -1.004,-2.317c0,-0.595 0.493,-0.78 1.025,-0.78c0.635,0 1.374,0.266 1.927,0.575l0.246,-0.123c-0.041,-0.306 -0.062,-0.636 -0.062,-0.944c0,-0.779 0.124,-1.374 0.226,-1.743M74.928,14.561c-1.72,0 -1.926,-2.479 -1.926,-3.689c0,-2.275 0.472,-3.976 1.988,-3.976c1.722,0 1.906,2.397 1.906,3.709c0,1.252 -0.204,3.956 -1.968,3.956M80.217,0.562c-0.553,0.062 -1.107,0.103 -1.659,0.103c-0.533,0 -1.334,-0.041 -1.845,-0.103c0.183,1.578 0.183,3.67 0.183,6.148c-0.49,-0.49 -1.292,-1.27 -3.013,-1.27c-2.993,0 -4.325,2.522 -4.325,5.268c0,2.993 1.497,5.228 4.469,5.228c1.7,0 2.337,-0.779 2.951,-1.663l-0.104,1.375c0.349,-0.042 1.007,-0.103 1.6,-0.103c0.595,0 1.27,0.061 1.64,0.103c-0.102,-1.045 -0.164,-1.887 -0.164,-5.125c0.001,-2.91 0.023,-6.456 0.267,-9.961M65.849,7.716l0.143,-2.152c-0.246,0.042 -0.882,0.103 -1.598,0.103c-0.78,0 -1.414,-0.061 -1.702,-0.103c0.165,1.906 0.165,3.465 0.165,5.637c0,2.643 -0.042,3.177 -0.145,4.449c0.247,-0.042 0.922,-0.104 1.62,-0.104c0.595,0 1.333,0.021 1.865,0.104c-0.184,-1.805 -0.205,-3.731 -0.205,-4.407c0,-1.313 0,-2.912 1.436,-2.912c0.41,0 0.758,0.185 1.106,0.431l0.247,-0.142c-0.062,-1.478 0.061,-2.501 0.142,-3.178c-1.024,-0.062 -2.111,-0.125 -3.074,2.274M3.588,8.885c-0.719,-0.226 -1.294,-0.514 -1.294,-1.231c0,-0.84 0.862,-1.128 1.558,-1.128c1.703,0 2.031,1.066 2.194,1.662l0.452,0c0.081,-0.883 0.266,-1.497 0.49,-2.071c-0.984,-0.492 -2.09,-0.737 -3.195,-0.737c-1.476,0 -3.751,0.697 -3.751,3.402c0,1.68 0.861,2.582 2.766,3.259c1.597,0.573 2.194,0.779 2.194,1.578c0,0.964 -0.984,1.209 -1.764,1.209c-1.434,0 -2.191,-0.943 -2.457,-1.825l-0.452,-0.039c0,0.327 -0.042,0.654 -0.082,0.983c-0.063,0.389 -0.124,0.778 -0.247,1.168c0.451,0.289 1.331,0.841 3.218,0.841c2.009,0 4.141,-0.901 4.141,-3.648c0,-2.091 -1.456,-2.707 -3.771,-3.424M12.847,5.729c0,-0.698 0.165,-2.439 0.245,-3.649l-0.245,-0.185c-0.575,0.328 -1.641,0.963 -3.239,1.516c0.021,0.78 0.062,1.415 0.062,2.318c-0.308,0 -0.78,-0.063 -1.291,-0.104c0.041,0.205 0.082,0.349 0.082,0.636c0,0.306 -0.022,0.472 -0.082,0.675c0.409,-0.04 0.902,-0.102 1.291,-0.102c0,1.703 -0.083,4.408 -0.083,6.109c0,1.045 0.123,1.66 0.678,2.234c0.491,0.513 1.167,0.778 2.049,0.778c0.737,0 1.353,-0.184 2.253,-0.47c-0.019,-0.103 -0.06,-0.289 -0.06,-0.492c0,-0.165 0.02,-0.328 0.06,-0.513c-0.224,0.102 -0.552,0.185 -0.799,0.185c-1.003,0 -1.003,-0.923 -1.003,-2.153c0,-1.764 0.021,-3.936 0.082,-5.678c0.472,0 1.167,0.062 1.762,0.102c-0.042,-0.143 -0.082,-0.348 -0.082,-0.675c0,-0.287 0.04,-0.43 0.082,-0.636c-0.616,0.041 -1.312,0.104 -1.762,0.104M42.485,8.801c-0.001,-2.274 -1.23,-3.379 -3.259,-3.379c-1.434,0 -2.52,0.675 -3.299,1.863c-0.553,-1.332 -1.456,-1.863 -2.911,-1.863c-1.497,0 -2.521,0.552 -3.32,1.801l0.102,-1.66c-0.555,0.062 -1.126,0.103 -1.701,0.103c-0.534,0 -1.128,-0.02 -1.661,-0.103c0.102,1.004 0.164,2.01 0.164,3.034l0,4.673c0,0.799 -0.02,1.598 -0.123,2.378c0.246,-0.042 0.902,-0.104 1.661,-0.104c0.656,0 1.27,0.042 1.741,0.104c-0.082,-0.698 -0.102,-1.558 -0.102,-2.09l0,-3.67c0,-1.067 0.143,-2.5 1.64,-2.5c1.393,0 1.578,1.024 1.578,3.996c0,1.331 -0.062,2.993 -0.226,4.264c0.514,-0.104 1.128,-0.104 1.641,-0.104c0.593,0 1.168,0.042 1.763,0.104c-0.042,-0.575 -0.104,-1.435 -0.104,-1.988l0,-3.732c0,-1.68 0.472,-2.54 1.722,-2.54c1.455,0 1.496,1.372 1.496,3.464c0,1.496 -0.062,3.32 -0.205,4.796c0.329,-0.042 1.005,-0.104 1.66,-0.104c0.594,0 1.21,0.021 1.805,0.104c-0.021,-0.594 -0.084,-1.107 -0.084,-2.132c0.001,-1.332 0.001,-3.463 0.021,-4.715M20.866,13.436c-0.144,0.573 -0.575,0.9 -1.148,0.9c-1.086,0 -1.231,-0.9 -1.231,-1.515c0,-1.435 0.533,-1.927 2.48,-2.338c0,1.948 0,2.541 -0.101,2.953M24.638,14.603c-0.698,0 -0.698,-0.676 -0.698,-1.435c0,-2.048 0.103,-3.421 0.103,-4.407c0,-0.861 -0.165,-1.743 -0.861,-2.358c-0.84,-0.737 -1.987,-0.982 -3.075,-0.982c-1.067,0 -2.5,0.244 -3.894,1.352c0.205,0.368 0.307,0.86 0.37,1.292l0.039,0.021c0.391,-0.371 1.168,-1.089 2.542,-1.089c1.209,0 1.846,0.615 1.846,1.764c0,0.554 -0.022,0.636 -1.457,1.065c-2.746,0.821 -4.099,1.251 -4.099,3.383c0,1.189 0.636,2.768 2.91,2.768c1.703,0 2.398,-0.882 2.809,-1.417c0.143,0.39 0.554,1.333 1.948,1.333c0.901,0 1.783,-0.45 2.193,-0.716c-0.043,-0.267 -0.043,-0.535 0,-0.821c-0.167,0.166 -0.452,0.247 -0.677,0.247" style="fill:#1c66a1;fill-rule:nonzero;"/></svg>