<?xml version="1.0" standalone="no"?><!DOCTYPE svg PUBLIC "-//W3C//DTD SVG 1.1//EN" "http://www.w3.org/Graphics/SVG/1.1/DTD/svg11.dtd"><svg width="100%" height="100%" viewBox="0 0 111 30" version="1.1" xmlns="http://www.w3.org/2000/svg" xmlns:xlink="http://www.w3.org/1999/xlink" xml:space="preserve" style="fill-rule:evenodd;clip-rule:evenodd;stroke-linejoin:round;stroke-miterlimit:1.41421;"><path d="M79.469,28.094c-2.351,0 -3.147,-1.984 -3.147,-4.034c0,-1.185 0.237,-4.054 2.437,-4.054c0.732,0 1.726,0.498 1.939,2.136l0.624,0c0.066,-0.453 0.24,-1.336 0.78,-2.458c-0.561,-0.389 -1.511,-1.014 -3.474,-1.014c-1.51,0 -5.91,0.517 -5.91,5.694c0,2.672 1.575,5.368 5.629,5.368c1.749,0 2.739,-0.518 3.107,-0.798c0.279,-0.732 0.388,-1.011 0.669,-1.465l-0.432,-0.432c-1.144,0.992 -1.769,1.057 -2.222,1.057M88.678,27.166c-0.152,0.605 -0.605,0.948 -1.208,0.948c-1.142,0 -1.294,-0.948 -1.294,-1.596c0,-1.509 0.562,-2.025 2.609,-2.457c0,2.049 0,2.674 -0.107,3.105M92.645,28.396c-0.733,0 -0.733,-0.712 -0.733,-1.51c0,-2.156 0.109,-3.601 0.109,-4.637c0,-0.905 -0.175,-1.833 -0.906,-2.48c-0.885,-0.776 -2.094,-1.035 -3.235,-1.035c-1.121,0 -2.631,0.259 -4.097,1.423c0.214,0.387 0.324,0.905 0.388,1.359l0.043,0.021c0.411,-0.388 1.228,-1.144 2.674,-1.144c1.27,0 1.941,0.647 1.941,1.856c0,0.583 -0.02,0.67 -1.53,1.121c-2.891,0.864 -4.315,1.317 -4.315,3.559c0,1.249 0.67,2.91 3.063,2.91c1.79,0 2.523,-0.927 2.953,-1.487c0.152,0.409 0.583,1.403 2.049,1.403c0.95,0 1.875,-0.475 2.307,-0.756c-0.044,-0.281 -0.044,-0.561 0,-0.862c-0.172,0.173 -0.472,0.259 -0.712,0.259M98.212,19.059c0,-0.734 0.172,-2.569 0.258,-3.84l-0.258,-0.192c-0.605,0.345 -1.724,1.014 -3.408,1.595c0.021,0.819 0.064,1.487 0.064,2.437c-0.322,0 -0.818,-0.065 -1.359,-0.11c0.044,0.216 0.088,0.368 0.088,0.67c0,0.324 -0.022,0.495 -0.088,0.711c0.431,-0.044 0.95,-0.109 1.359,-0.109c0,1.792 -0.085,4.636 -0.085,6.427c0,1.099 0.129,1.748 0.71,2.351c0.518,0.54 1.231,0.82 2.157,0.82c0.776,0 1.424,-0.194 2.372,-0.496c-0.021,-0.11 -0.065,-0.303 -0.065,-0.518c0,-0.172 0.023,-0.344 0.065,-0.539c-0.237,0.107 -0.582,0.195 -0.84,0.195c-1.058,0 -1.058,-0.972 -1.058,-2.265c0,-1.856 0.023,-4.141 0.088,-5.975c0.495,0 1.228,0.065 1.853,0.109c-0.043,-0.151 -0.085,-0.365 -0.085,-0.711c0,-0.301 0.043,-0.454 0.085,-0.67c-0.646,0.045 -1.379,0.11 -1.853,0.11M104.271,23.155c-0.045,-2.696 0.926,-3.408 1.789,-3.408c1.099,0 1.531,0.863 1.553,3.408l-3.342,0ZM106.146,18.714c-2.761,0 -5.411,1.486 -5.411,5.521c0,3.254 1.962,5.583 5.541,5.583c0.775,0 2.48,-0.13 3.795,-1.057c0.108,-0.409 0.237,-0.883 0.561,-1.574l-0.388,-0.366c-1.057,1.143 -2.2,1.23 -2.846,1.23c-2.89,0 -3.149,-2.309 -3.127,-3.645c1.422,-0.066 2.005,-0.086 2.91,-0.086c1.252,0 2.503,0.02 3.754,0.086c0.021,-0.195 0.064,-0.604 0.064,-0.862c0,-2.696 -1.488,-4.83 -4.853,-4.83M42.94,28.352c-1.812,0 -2.027,-2.61 -2.027,-3.882c0,-2.393 0.495,-4.184 2.092,-4.184c1.813,0 2.006,2.523 2.006,3.904c0,1.316 -0.217,4.162 -2.071,4.162M48.35,13.638l-3.413,1.516c0.072,1.405 0.074,3.063 0.074,4.94c-0.518,-0.518 -1.359,-1.337 -3.171,-1.337c-3.147,0 -4.55,2.653 -4.55,5.542c0,3.147 1.576,5.498 4.703,5.498c1.79,0 2.456,-0.819 3.105,-1.745l-0.108,1.445c0.366,-0.044 1.057,-0.109 1.68,-0.109c0.627,0 1.339,0.066 1.725,0.109c-0.105,-1.1 -0.171,-1.984 -0.171,-5.391c0,-3.063 0.021,-6.795 0.281,-10.481c-0.054,0.005 -0.103,0.007 -0.156,0.013M65.648,28.718c-2.028,0 -2.092,-3.149 -2.092,-4.507c0,-1.402 0.042,-4.485 2.112,-4.485c2.07,0 2.137,2.868 2.137,4.334c0,2.201 -0.368,4.658 -2.157,4.658M65.648,18.67c-4.121,0 -5.694,2.631 -5.694,5.565c0,3.234 2.006,5.541 5.694,5.541c3.837,0 5.757,-2.546 5.757,-5.715c0,-3.17 -1.877,-5.391 -5.757,-5.391M31.972,27.166c-0.151,0.605 -0.605,0.948 -1.209,0.948c-1.142,0 -1.294,-0.948 -1.294,-1.596c0,-1.509 0.562,-2.025 2.61,-2.457c0.001,2.049 0.001,2.674 -0.107,3.105M35.942,28.396c-0.735,0 -0.735,-0.712 -0.735,-1.51c0,-2.156 0.108,-3.601 0.108,-4.637c0,-0.905 -0.172,-1.833 -0.904,-2.48c-0.886,-0.776 -2.093,-1.035 -3.235,-1.035c-1.123,0 -2.631,0.259 -4.098,1.423c0.216,0.387 0.323,0.905 0.389,1.359l0.043,0.021c0.408,-0.388 1.229,-1.144 2.673,-1.144c1.273,0 1.941,0.647 1.941,1.856c0,0.583 -0.022,0.67 -1.531,1.121c-2.89,0.864 -4.312,1.317 -4.312,3.559c0,1.249 0.667,2.91 3.061,2.91c1.791,0 2.523,-0.927 2.955,-1.487c0.15,0.409 0.582,1.403 2.047,1.403c0.949,0 1.878,-0.475 2.308,-0.756c-0.042,-0.281 -0.042,-0.561 0,-0.862c-0.172,0.173 -0.476,0.259 -0.71,0.259M59.005,18.994c-0.303,0 -0.776,-0.022 -1.273,-0.108c-0.605,2.199 -0.689,2.436 -2.308,7.115c-0.949,-2.911 -1.724,-5.349 -2.112,-7.115c-0.648,0.108 -1.316,0.108 -1.963,0.108c-0.69,0 -1.38,0 -2.069,-0.108c1.335,2.976 3.234,8.258 3.837,10.61c0.454,-0.067 0.927,-0.11 1.381,-0.11c0.474,0 0.948,0.044 1.401,0.11c0.216,-0.778 0.302,-1.144 1.1,-3.215l1.94,-5.067c0.391,-1.056 0.82,-1.833 1.099,-2.328c-0.343,0.042 -0.688,0.108 -1.033,0.108" style="fill:#fff;fill-rule:nonzero;"/><path d="M55.886,14.91c-1.927,0 -1.988,-2.992 -1.988,-4.283c0,-1.333 0.041,-4.264 2.008,-4.264c1.968,0 2.031,2.726 2.031,4.119c0,2.092 -0.35,4.428 -2.051,4.428M55.886,5.359c-3.914,0 -5.412,2.5 -5.412,5.288c0,3.073 1.908,5.267 5.412,5.267c3.649,0 5.473,-2.419 5.473,-5.431c0,-3.013 -1.783,-5.124 -5.473,-5.124M50.537,0.081c-0.431,-0.081 -0.739,-0.081 -0.903,-0.081c-1.864,0 -3.998,1.352 -4.489,5.412c-0.429,0 -0.84,-0.021 -1.272,-0.104c0.022,0.246 0.084,0.451 0.084,0.657c0,0.225 -0.062,0.429 -0.084,0.655c0.535,-0.082 0.719,-0.082 1.252,-0.103l0,4.817c0,0.598 -0.006,1.195 -0.026,1.795l3.184,-1.415c0,-0.174 -0.001,-0.348 -0.001,-0.523l0,-4.673c0.635,0.02 1.558,0.081 1.66,0.103c-0.061,-0.206 -0.082,-0.43 -0.082,-0.655c0,-0.226 0.041,-0.516 0.082,-0.658c-0.718,0.105 -1.332,0.105 -1.764,0.105c-0.655,-1.007 -1.004,-1.867 -1.004,-2.317c0,-0.596 0.494,-0.78 1.025,-0.78c0.636,0 1.374,0.265 1.927,0.574l0.246,-0.123c-0.04,-0.306 -0.061,-0.636 -0.061,-0.943c0,-0.779 0.123,-1.374 0.225,-1.743M74.927,14.56c-1.72,0 -1.927,-2.478 -1.927,-3.688c0.001,-2.275 0.472,-3.976 1.988,-3.976c1.723,0 1.907,2.397 1.907,3.709c0,1.252 -0.204,3.955 -1.968,3.955M80.216,0.562c-0.553,0.062 -1.108,0.103 -1.66,0.103c-0.533,0 -1.334,-0.041 -1.844,-0.103c0.182,1.578 0.182,3.67 0.182,6.148c-0.489,-0.49 -1.292,-1.269 -3.013,-1.269c-2.992,0 -4.325,2.521 -4.325,5.267c0,2.993 1.497,5.228 4.469,5.228c1.7,0 2.337,-0.779 2.951,-1.663l-0.103,1.375c0.349,-0.042 1.006,-0.104 1.599,-0.104c0.595,0 1.27,0.062 1.641,0.104c-0.102,-1.046 -0.165,-1.887 -0.165,-5.126c0.001,-2.909 0.023,-6.455 0.267,-9.96M65.847,7.716l0.144,-2.152c-0.246,0.042 -0.882,0.103 -1.598,0.103c-0.78,0 -1.415,-0.061 -1.703,-0.103c0.165,1.906 0.165,3.464 0.165,5.637c0,2.643 -0.042,3.177 -0.145,4.448c0.247,-0.042 0.922,-0.103 1.62,-0.103c0.595,0 1.333,0.021 1.866,0.103c-0.184,-1.804 -0.205,-3.73 -0.205,-4.406c0,-1.313 0,-2.912 1.435,-2.912c0.41,0 0.758,0.185 1.107,0.43l0.246,-0.141c-0.062,-1.478 0.061,-2.501 0.143,-3.178c-1.025,-0.062 -2.111,-0.125 -3.075,2.274M3.587,8.885c-0.719,-0.226 -1.294,-0.514 -1.294,-1.231c0,-0.84 0.861,-1.128 1.557,-1.128c1.704,0 2.031,1.066 2.194,1.662l0.452,0c0.082,-0.883 0.267,-1.497 0.491,-2.071c-0.984,-0.492 -2.09,-0.737 -3.196,-0.737c-1.475,0 -3.751,0.697 -3.751,3.402c0,1.68 0.861,2.582 2.767,3.259c1.597,0.573 2.193,0.779 2.193,1.578c0,0.964 -0.984,1.209 -1.763,1.209c-1.434,0 -2.192,-0.943 -2.458,-1.825l-0.451,-0.039c0,0.327 -0.042,0.654 -0.082,0.983c-0.062,0.389 -0.124,0.778 -0.246,1.168c0.452,0.289 1.331,0.841 3.218,0.841c2.009,0 4.141,-0.901 4.141,-3.648c-0.002,-2.091 -1.457,-2.706 -3.772,-3.423M12.845,5.729c0,-0.698 0.165,-2.439 0.246,-3.648l-0.246,-0.186c-0.574,0.328 -1.641,0.963 -3.238,1.516c0.02,0.78 0.061,1.414 0.061,2.318c-0.308,0 -0.78,-0.063 -1.29,-0.104c0.04,0.205 0.081,0.349 0.081,0.636c0,0.306 -0.021,0.472 -0.081,0.675c0.408,-0.04 0.901,-0.102 1.29,-0.102c0,1.702 -0.082,4.408 -0.082,6.109c0,1.045 0.123,1.66 0.677,2.234c0.491,0.513 1.168,0.778 2.049,0.778c0.737,0 1.353,-0.184 2.254,-0.471c-0.02,-0.102 -0.06,-0.288 -0.06,-0.491c0,-0.165 0.019,-0.328 0.06,-0.513c-0.224,0.102 -0.553,0.185 -0.799,0.185c-1.003,0 -1.003,-0.923 -1.003,-2.153c0,-1.764 0.021,-3.936 0.081,-5.678c0.472,0 1.168,0.062 1.763,0.102c-0.042,-0.143 -0.083,-0.348 -0.083,-0.675c0,-0.287 0.041,-0.431 0.083,-0.636c-0.616,0.041 -1.312,0.104 -1.763,0.104M42.483,8.801c0,-2.274 -1.229,-3.379 -3.259,-3.379c-1.434,0 -2.52,0.675 -3.298,1.863c-0.554,-1.332 -1.457,-1.863 -2.912,-1.863c-1.497,0 -2.52,0.552 -3.32,1.801l0.102,-1.659c-0.554,0.061 -1.126,0.102 -1.701,0.102c-0.534,0 -1.128,-0.02 -1.66,-0.102c0.102,1.003 0.164,2.009 0.164,3.033l0,4.673c0,0.799 -0.02,1.598 -0.124,2.378c0.247,-0.042 0.902,-0.104 1.661,-0.104c0.657,0 1.271,0.042 1.741,0.104c-0.082,-0.698 -0.102,-1.558 -0.102,-2.089l0,-3.671c0,-1.067 0.143,-2.5 1.64,-2.5c1.394,0 1.578,1.024 1.578,3.996c0,1.332 -0.061,2.993 -0.226,4.264c0.514,-0.104 1.128,-0.104 1.641,-0.104c0.594,0 1.168,0.042 1.763,0.104c-0.042,-0.575 -0.104,-1.435 -0.104,-1.988l0,-3.731c0,-1.68 0.472,-2.541 1.722,-2.541c1.455,0 1.497,1.372 1.497,3.464c0,1.496 -0.063,3.32 -0.206,4.796c0.329,-0.042 1.005,-0.104 1.66,-0.104c0.595,0 1.21,0.022 1.806,0.104c-0.022,-0.594 -0.084,-1.107 -0.084,-2.131c0.001,-1.333 0.001,-3.464 0.021,-4.716M20.864,13.435c-0.144,0.574 -0.574,0.901 -1.148,0.901c-1.086,0 -1.231,-0.901 -1.231,-1.516c0,-1.434 0.534,-1.926 2.48,-2.337c0,1.948 0,2.541 -0.101,2.952M24.636,14.603c-0.697,0 -0.697,-0.676 -0.697,-1.435c0,-2.048 0.102,-3.421 0.102,-4.407c0,-0.861 -0.165,-1.743 -0.861,-2.358c-0.84,-0.737 -1.986,-0.982 -3.075,-0.982c-1.066,0 -2.499,0.244 -3.894,1.352c0.205,0.368 0.308,0.86 0.37,1.292l0.04,0.021c0.391,-0.371 1.168,-1.089 2.542,-1.089c1.209,0 1.845,0.615 1.845,1.764c0,0.554 -0.021,0.636 -1.456,1.065c-2.747,0.821 -4.099,1.252 -4.099,3.383c0,1.189 0.635,2.768 2.91,2.768c1.703,0 2.398,-0.882 2.809,-1.416c0.143,0.39 0.554,1.332 1.948,1.332c0.901,0 1.782,-0.45 2.192,-0.716c-0.042,-0.267 -0.042,-0.535 0,-0.82c-0.166,0.164 -0.452,0.246 -0.676,0.246" style="fill:#fff;fill-rule:nonzero;"/></svg>