<?xml version="1.0" standalone="no"?>
<!DOCTYPE svg PUBLIC "-//W3C//DTD SVG 1.1//EN" "http://www.w3.org/Graphics/SVG/1.1/DTD/svg11.dtd">
<svg width="100%" height="100%" viewBox="0 0 72 74" version="1.1" xmlns="http://www.w3.org/2000/svg" xmlns:xlink="http://www.w3.org/1999/xlink" xml:space="preserve" style="fill-rule:evenodd;clip-rule:evenodd;stroke-linecap:round;stroke-linejoin:round;stroke-miterlimit:10;">
    <g transform="matrix(1,0,0,1,5.26038,-293.219)">
        <path d="M53,331L7,331L17,319L43,319L53,331Z" style="fill:none;stroke-width:2px;stroke:white;"/>
    </g>
    <g transform="matrix(1,0,0,1,5.26038,-293.219)">
        <path d="M17,319L30,357" style="fill:none;stroke-width:2px;stroke:white;"/>
    </g>
    <g transform="matrix(1,0,0,1,5.26038,-293.219)">
        <path d="M30,319L21,331" style="fill:none;stroke-width:2px;stroke:white;"/>
    </g>
    <g transform="matrix(1,0,0,1,5.26038,-293.219)">
        <path d="M30,319L39,331" style="fill:none;stroke-width:2px;stroke:white;"/>
    </g>
    <g transform="matrix(1,0,0,1,5.26038,-293.219)">
        <path d="M43,319L30,357" style="fill:none;stroke-width:2px;stroke:white;"/>
    </g>
    <g transform="matrix(1,0,0,1,5.26038,-293.219)">
        <path d="M30,357L7,331L53,331L30,357Z" style="fill:none;stroke-width:2px;stroke:white;"/>
    </g>
    <g transform="matrix(1,0,0,1,5.26038,-293.219)">
        <path d="M30.196,303.269L30.196,310.768" style="fill:none;stroke-width:2px;stroke:white;"/>
    </g>
    <g transform="matrix(1,0,0,1,5.26038,-293.219)">
        <path d="M15.83,305.919L19.58,312.414" style="fill:none;stroke-width:2px;stroke:white;"/>
    </g>
    <g transform="matrix(1,0,0,1,5.26038,-293.219)">
        <path d="M55.871,313.577L49.376,317.327" style="fill:none;stroke-width:2px;stroke:white;"/>
    </g>
    <g transform="matrix(1,0,0,1,5.26038,-293.219)">
        <path d="M44.83,305.486L41.08,311.981" style="fill:none;stroke-width:2px;stroke:white;"/>
    </g>
    <g transform="matrix(1,0,0,1,5.26038,-293.219)">
        <path d="M11.284,316.893L4.79,313.143" style="fill:none;stroke-width:2px;stroke:white;"/>
    </g>
</svg>
