<?xml version="1.0" standalone="no"?>
<!DOCTYPE svg PUBLIC "-//W3C//DTD SVG 1.1//EN" "http://www.w3.org/Graphics/SVG/1.1/DTD/svg11.dtd">
<svg width="100%" height="100%" viewBox="0 0 57 79" version="1.1" xmlns="http://www.w3.org/2000/svg" xmlns:xlink="http://www.w3.org/1999/xlink" xml:space="preserve" style="fill-rule:evenodd;clip-rule:evenodd;stroke-linecap:round;stroke-linejoin:round;stroke-miterlimit:10;">
    <g transform="matrix(1,0,0,1,-1.94993,-110.95)">
        <path d="M34.667,167L25.334,167C22.94,167 21,165.06 21,162.667L21,159L39,159L39,162.667C39,165.06 37.06,167 34.667,167Z" style="fill:none;stroke-width:2px;stroke:rgb(80,80,112);"/>
    </g>
    <g transform="matrix(1,0,0,1,-1.94993,-110.95)">
        <path d="M37,166.5L37,172C37,175.866 33.866,179 30,179C26.134,179 23,175.866 23,172L23,166.5" style="fill:none;stroke-width:2px;stroke:rgb(80,80,112);"/>
    </g>
    <g transform="matrix(1,0,0,1,-1.94993,-110.95)">
        <path d="M48,139C48,128.382 38.807,119.912 27.947,121.114C19.471,122.052 12.719,129.058 12.056,137.56C11.583,143.632 14.132,149.119 18.352,152.703C20.082,154.173 21,156.387 21,158.657L21,159L39,159L39,158.496C39,156.298 39.909,154.168 41.59,152.752C45.507,149.454 48,144.522 48,139Z" style="fill:none;stroke-width:2px;stroke:rgb(80,80,112);"/>
    </g>
    <g transform="matrix(1,0,0,1,-1.94993,-110.95)">
        <path d="M23.9,175L36.2,175" style="fill:none;stroke-width:2px;stroke:rgb(80,80,112);"/>
    </g>
    <g transform="matrix(1,0,0,1,-1.94993,-110.95)">
        <path d="M23.1,171L37,171" style="fill:none;stroke-width:2px;stroke:rgb(80,80,112);"/>
    </g>
    <g transform="matrix(1,0,0,1,-1.94993,-110.95)">
        <path d="M41.7,145C40.25,148.038 38.095,149.089 36.833,150.975" style="fill:none;stroke-width:2px;stroke:rgb(80,80,112);"/>
    </g>
    <g transform="matrix(1,0,0,1,-1.94993,-110.95)">
        <path d="M19.329,130.589C21.833,127.34 25.764,125.247 30.183,125.247" style="fill:none;stroke-width:2px;stroke:rgb(80,80,112);"/>
    </g>
    <g transform="matrix(1,0,0,1,-1.94993,-110.95)">
        <path d="M16.608,137.117C16.762,135.961 17.06,134.851 17.484,133.805" style="fill:none;stroke-width:2px;stroke:rgb(80,80,112);"/>
    </g>
</svg>
