<?xml version="1.0" standalone="no"?>
<!DOCTYPE svg PUBLIC "-//W3C//DTD SVG 1.1//EN" "http://www.w3.org/Graphics/SVG/1.1/DTD/svg11.dtd">
<svg width="100%" height="100%" viewBox="0 0 79 73" version="1.1" xmlns="http://www.w3.org/2000/svg" xmlns:xlink="http://www.w3.org/1999/xlink" xml:space="preserve" style="fill-rule:evenodd;clip-rule:evenodd;stroke-linecap:round;stroke-linejoin:round;stroke-miterlimit:10;">
    <g transform="matrix(1,0,0,1,-50.9503,-174.95)">
        <path d="M87,197L93,197" style="fill:none;stroke-width:2px;stroke:rgb(80,80,112);"/>
    </g>
    <g transform="matrix(1,0,0,1,-50.9503,-174.95)">
        <path d="M81,203L99,203" style="fill:none;stroke-width:2px;stroke:rgb(80,80,112);"/>
    </g>
    <g transform="matrix(1,0,0,1,-50.9503,-174.95)">
        <path d="M81,209L99,209" style="fill:none;stroke-width:2px;stroke:rgb(80,80,112);"/>
    </g>
    <g transform="matrix(1,0,0,1,-50.9503,-174.95)">
        <path d="M73,213L73,185L101,185L107,191L107,213" style="fill:none;stroke-width:2px;stroke:rgb(80,80,112);"/>
    </g>
    <g transform="matrix(1,0,0,1,-50.9503,-174.95)">
        <path d="M101,185L101,191L107,191" style="fill:none;stroke-width:2px;stroke:rgb(80,80,112);"/>
    </g>
    <g transform="matrix(1,0,0,1,-50.9503,-174.95)">
        <path d="M69,203L68,203L61,216L61,235C61,236.104 61.895,237 63,237L117,237C118.105,237 119,236.104 119,235L119,216L112,203L111,203" style="fill:none;stroke-width:2px;stroke:rgb(80,80,112);"/>
    </g>
    <g transform="matrix(1,0,0,1,-50.9503,-174.95)">
        <path d="M61,217L79,217L79,223C79,224.105 79.895,225 81,225L99,225C100.105,225 101,224.105 101,223L101,217L119,217" style="fill:none;stroke-width:2px;stroke:rgb(80,80,112);"/>
    </g>
</svg>
