<?xml version="1.0" standalone="no"?>
<!DOCTYPE svg PUBLIC "-//W3C//DTD SVG 1.1//EN" "http://www.w3.org/Graphics/SVG/1.1/DTD/svg11.dtd">
<svg width="100%" height="100%" viewBox="0 0 47 95" version="1.1" xmlns="http://www.w3.org/2000/svg" xmlns:xlink="http://www.w3.org/1999/xlink" xml:space="preserve" style="fill-rule:evenodd;clip-rule:evenodd;stroke-linejoin:round;stroke-miterlimit:1.41421;">
    <g transform="matrix(4.16667,0,0,4.16667,-122.401,-278.477)">
        <path d="M33.761,86.884C33.761,86.606 33.759,82.311 33.759,81.804C33.759,79.607 34.972,78.138 36.766,75.685C39.594,71.823 38.853,69.346 38.314,68.302C37.928,67.56 37.18,67.022 36.397,66.875C36.135,66.824 35.805,66.818 35.481,66.875C36.947,66.895 37.303,68.054 37.406,68.93C37.551,70.181 37.337,71.02 34.885,73.458C33.689,74.64 32.909,75.161 31.585,76.669C30.104,78.34 28.982,80.558 29.508,83.989C30.047,87.458 32.56,89.517 35.427,89.517C36.227,89.517 36.988,89.293 37.668,88.896C36.749,89.12 33.761,88.999 33.761,86.884" style="fill:rgb(0,97,156);fill-rule:nonzero;"/>
    </g>
    <g transform="matrix(4.16667,0,0,4.16667,-122.401,-278.477)">
        <path d="M40.614,83.233C40.614,82.425 40.565,81.166 40.49,80.675C40.177,78.654 39.027,76.843 37.261,75.41C37.213,75.365 37.14,75.314 37.065,75.255C36.967,75.401 36.877,75.537 36.766,75.685C36.415,76.167 36.095,76.604 35.792,77.019C36.136,77.396 36.462,77.787 36.808,78.299C37.329,79.08 37.277,79.962 37.311,80.731C37.343,81.341 37.31,85.475 37.31,86.769C37.31,87.826 36.398,88.455 35.384,88.773C36.244,89.033 37.207,89.01 37.667,88.895C39.406,87.89 40.614,85.753 40.614,83.233M37.667,88.895C37.664,88.895 37.661,88.896 37.658,88.896C37.661,88.896 37.664,88.895 37.667,88.895M34.788,73.545C34.52,73.313 34.28,73.08 34.109,72.863C33.337,71.91 32.678,70.534 33.39,68.905C32.441,70.428 32.7,71.838 32.922,72.583C33.12,73.235 33.39,73.909 33.734,74.532C34.066,74.234 34.406,73.919 34.788,73.545" style="fill:rgb(0,144,190);fill-rule:nonzero;"/>
    </g>
</svg>
