<?xml version="1.0" standalone="no"?><!DOCTYPE svg PUBLIC "-//W3C//DTD SVG 1.1//EN" "http://www.w3.org/Graphics/SVG/1.1/DTD/svg11.dtd"><svg width="100%" height="100%" viewBox="0 0 332 275" version="1.1" xmlns="http://www.w3.org/2000/svg" xmlns:xlink="http://www.w3.org/1999/xlink" xml:space="preserve" style="fill-rule:evenodd;clip-rule:evenodd;stroke-linejoin:round;stroke-miterlimit:1.41421;"><path d="M250,6.25l-159.375,0c-24.163,0 -43.75,19.588 -43.75,43.75l0,25c0,18.553 -14.128,33.916 -26.378,43.75l229.503,0c24.125,0 43.75,-19.625 43.75,-43.75l0,-25c0,-24.162 -19.588,-43.75 -43.75,-43.75Z" style="fill:#73cbf3;fill-rule:nonzero;"/><path d="M283.141,225l0,-25c0,-24.162 -19.491,-43.75 -43.532,-43.75l-158.578,0c-24.04,0 -43.531,19.588 -43.531,43.75l0,25c0,24.125 19.528,43.75 43.531,43.75l228.353,0c-12.187,-9.834 -26.243,-25.197 -26.243,-43.75Z" style="fill:#5ebf8a;fill-rule:nonzero;"/><path d="M250,112.5l-213.506,0c1.793,-1.965 3.5,-4.072 5.131,-6.25l208.375,0c19.622,0 35.744,-15.159 37.341,-34.375c0.087,1.035 0.159,2.069 0.159,3.125c0,20.678 -16.822,37.5 -37.5,37.5Z" style="fill:#64b7df;fill-rule:nonzero;"/><path d="M293.781,262.5l-212.678,0c-20.597,0 -37.353,-16.822 -37.353,-37.5c0,-1.056 0.072,-2.09 0.156,-3.125c1.594,19.216 17.65,34.375 37.197,34.375l207.566,0c1.625,2.178 3.321,4.285 5.112,6.25Z" style="fill:#40b980;fill-rule:nonzero;"/><path d="M250,84.375l-159.375,0l0,-6.25l159.375,0l0,6.25ZM212.5,65.625l-121.875,0l0,-6.25l121.875,0l0,6.25ZM231.25,46.875l-140.625,0l0,-6.25l140.625,0l0,6.25Z" style="fill:#599fc0;fill-rule:nonzero;"/><path d="M187.5,234.375l-106.25,0l0,-6.25l106.25,0l0,6.25ZM240.625,215.625l-159.375,0l0,-6.25l159.375,0l0,6.25ZM212.5,196.875l-131.25,0l0,-6.25l131.25,0l0,6.25Z" style="fill:#33a674;fill-rule:nonzero;"/><path d="M81.25,262.5c-20.678,0 -37.5,-16.822 -37.5,-37.5l0,-25c0,-20.678 16.822,-37.5 37.5,-37.5l159.375,0c20.678,0 37.5,16.822 37.5,37.5l0,25c0,14.828 7.544,27.55 16.634,37.5l-213.509,0ZM290.625,225l0,-25c0,-27.615 -22.384,-50 -50,-50l-159.375,0c-27.616,0 -50,22.385 -50,50l0,25c0,27.616 22.384,50 50,50l250,0c0,0 -40.625,-21.353 -40.625,-50ZM53.125,75l0,-25c0,-20.678 16.822,-37.5 37.5,-37.5l159.375,0c20.678,0 37.5,16.822 37.5,37.5l0,25c0,20.678 -16.822,37.5 -37.5,37.5l-213.509,0c9.09,-9.95 16.634,-22.672 16.634,-37.5ZM300,75l0,-25c0,-27.615 -22.384,-50 -50,-50l-159.375,0c-27.616,0 -50,22.385 -50,50l0,25c0,28.647 -40.625,50 -40.625,50l250,0c27.616,0 50,-22.387 50,-50Z" style="fill:#151b1e;fill-rule:nonzero;"/></svg>