<?xml version="1.0" standalone="no"?><!DOCTYPE svg PUBLIC "-//W3C//DTD SVG 1.1//EN" "http://www.w3.org/Graphics/SVG/1.1/DTD/svg11.dtd"><svg width="100%" height="100%" viewBox="0 0 282 332" version="1.1" xmlns="http://www.w3.org/2000/svg" xmlns:xlink="http://www.w3.org/1999/xlink" xml:space="preserve" style="fill-rule:evenodd;clip-rule:evenodd;stroke-linejoin:round;stroke-miterlimit:1.41421;"><path d="M162.5,318.75l31.25,0l0,-137.5l-31.25,0l0,137.5ZM237.5,106.25l0,212.5l31.25,0l0,-212.5l-31.25,0ZM87.5,318.75l31.25,0l0,-175l-31.25,0l0,175ZM12.5,318.75l31.25,0l0,-100l-31.25,0l0,100Z" style="fill:#5ebf8a;fill-rule:nonzero;"/><path d="M178.125,71.875c-12.081,0 -21.875,9.781 -21.875,21.875c0,12.094 9.794,21.875 21.875,21.875c12.081,0 21.875,-9.781 21.875,-21.875c0,-12.094 -9.794,-21.875 -21.875,-21.875ZM103.125,28.125c-12.081,0 -21.875,9.781 -21.875,21.875c0,12.094 9.794,21.875 21.875,21.875c12.081,0 21.875,-9.781 21.875,-21.875c0,-12.094 -9.794,-21.875 -21.875,-21.875ZM253.125,6.25c-12.081,0 -21.875,9.781 -21.875,21.875c0,12.094 9.794,21.875 21.875,21.875c12.081,0 21.875,-9.781 21.875,-21.875c0,-12.094 -9.794,-21.875 -21.875,-21.875ZM28.125,109.375c-12.081,0 -21.875,9.781 -21.875,21.875c0,12.094 9.794,21.875 21.875,21.875c12.081,0 21.875,-9.781 21.875,-21.875c0,-12.094 -9.794,-21.875 -21.875,-21.875Z" style="fill:#fec869;fill-rule:nonzero;"/><path d="M253.125,43.75c-8.628,0 -15.625,-7 -15.625,-15.625c0,-8.625 6.997,-15.625 15.625,-15.625c8.631,0 15.625,7 15.625,15.625c0,8.625 -6.994,15.625 -15.625,15.625ZM178.125,109.375c-8.628,0 -15.625,-7 -15.625,-15.625c0,-8.625 6.997,-15.625 15.625,-15.625c8.628,0 15.625,7 15.625,15.625c0,8.625 -6.997,15.625 -15.625,15.625ZM103.125,65.625c-8.628,0 -15.625,-7 -15.625,-15.625c0,-8.625 6.997,-15.625 15.625,-15.625c8.628,0 15.625,7 15.625,15.625c0,8.625 -6.997,15.625 -15.625,15.625ZM28.125,146.875c-8.631,0 -15.625,-7 -15.625,-15.625c0,-8.625 6.994,-15.625 15.625,-15.625c8.628,0 15.625,7 15.625,15.625c0,8.625 -6.997,15.625 -15.625,15.625ZM253.125,0c-15.534,0 -28.125,12.594 -28.125,28.125c0,5.969 1.872,11.5 5.044,16.031l-32.963,28.875c-5.003,-4.593 -11.644,-7.406 -18.956,-7.406c-9.244,0 -17.419,4.469 -22.544,11.375l-26.75,-15.625c1.544,-3.469 2.419,-7.312 2.419,-11.375c0,-15.531 -12.591,-28.125 -28.125,-28.125c-15.534,0 -28.125,12.594 -28.125,28.125c0,7.031 2.609,13.469 6.887,18.406l-37.118,40.219c-4.666,-3.437 -10.407,-5.5 -16.644,-5.5c-15.531,0 -28.125,12.594 -28.125,28.125c0,15.531 12.594,28.125 28.125,28.125c15.531,0 28.125,-12.594 28.125,-28.125c0,-7.031 -2.609,-13.469 -6.888,-18.406l37.119,-40.219c4.666,3.437 10.406,5.5 16.644,5.5c9.244,0 17.419,-4.469 22.547,-11.375l26.75,15.625c-1.547,3.469 -2.422,7.313 -2.422,11.375c0,15.531 12.591,28.125 28.125,28.125c15.534,0 28.125,-12.594 28.125,-28.125c0,-5.969 -1.872,-11.5 -5.044,-16.062l32.963,-28.813c5.003,4.563 11.643,7.375 18.956,7.375c15.534,0 28.125,-12.594 28.125,-28.125c0,-15.531 -12.591,-28.125 -28.125,-28.125Z" style="fill:#151b1e;fill-rule:nonzero;"/><rect x="12.5" y="231.25" width="31.25" height="6.25" style="fill:#33a674;fill-rule:nonzero;"/><rect x="162.5" y="193.75" width="31.25" height="6.25" style="fill:#33a674;fill-rule:nonzero;"/><rect x="87.5" y="156.25" width="31.25" height="6.25" style="fill:#33a674;fill-rule:nonzero;"/><rect x="237.5" y="118.75" width="31.25" height="6.25" style="fill:#33a674;fill-rule:nonzero;"/><rect x="237.5" y="312.5" width="31.25" height="6.25" style="fill:#40b980;fill-rule:nonzero;"/><rect x="162.5" y="312.5" width="31.25" height="6.25" style="fill:#40b980;fill-rule:nonzero;"/><rect x="87.5" y="312.5" width="31.25" height="6.25" style="fill:#40b980;fill-rule:nonzero;"/><rect x="12.5" y="312.5" width="31.25" height="6.25" style="fill:#40b980;fill-rule:nonzero;"/><path d="M28.125,146.875c-8.631,0 -15.625,-7 -15.625,-15.625c0,-1.062 0.109,-2.125 0.315,-3.125c1.447,7.125 7.751,12.5 15.31,12.5c7.559,0 13.862,-5.375 15.309,-12.5c0.207,1 0.316,2.063 0.316,3.125c0,8.625 -6.997,15.625 -15.625,15.625Z" style="fill:#e5b45b;fill-rule:nonzero;"/><path d="M178.125,109.375c-8.628,0 -15.625,-7 -15.625,-15.625c0,-1.062 0.109,-2.125 0.315,-3.125c1.447,7.125 7.751,12.5 15.31,12.5c7.559,0 13.862,-5.375 15.309,-12.5c0.207,1 0.316,2.063 0.316,3.125c0,8.625 -6.997,15.625 -15.625,15.625Z" style="fill:#e5b45b;fill-rule:nonzero;"/><path d="M103.125,65.625c-8.628,0 -15.625,-7 -15.625,-15.625c0,-1.062 0.109,-2.125 0.315,-3.125c1.447,7.125 7.751,12.5 15.31,12.5c7.559,0 13.862,-5.375 15.309,-12.5c0.207,1 0.316,2.063 0.316,3.125c0,8.625 -6.997,15.625 -15.625,15.625Z" style="fill:#e5b45b;fill-rule:nonzero;"/><path d="M103.125,65.625c-8.628,0 -15.625,-7 -15.625,-15.625c0,8.625 6.997,15.625 15.625,15.625c8.628,0 15.625,-7 15.625,-15.625c0,8.625 -6.997,15.625 -15.625,15.625Z" style="fill:#14191b;fill-rule:nonzero;"/><path d="M253.125,43.75c-8.628,0 -15.625,-7 -15.625,-15.625c0,-1.062 0.109,-2.125 0.315,-3.125c1.447,7.125 7.751,12.5 15.31,12.5c7.559,0 13.862,-5.375 15.309,-12.5c0.207,1 0.316,2.063 0.316,3.125c0,8.625 -6.994,15.625 -15.625,15.625Z" style="fill:#e5b45b;fill-rule:nonzero;"/><path d="M193.75,318.75l-31.25,0l0,-137.5l31.25,0l0,137.5ZM193.75,168.75l-31.25,0c-6.903,0 -12.5,5.594 -12.5,12.5l0,137.5c0,6.906 5.597,12.5 12.5,12.5l31.25,0c6.903,0 12.5,-5.594 12.5,-12.5l0,-137.5c0,-6.906 -5.597,-12.5 -12.5,-12.5ZM118.75,318.75l-31.25,0l0,-175l31.25,0l0,175ZM118.75,131.25l-31.25,0c-6.903,0 -12.5,5.594 -12.5,12.5l0,175c0,6.906 5.597,12.5 12.5,12.5l31.25,0c6.903,0 12.5,-5.594 12.5,-12.5l0,-175c0,-6.906 -5.597,-12.5 -12.5,-12.5ZM268.75,318.75l-31.25,0l0,-212.5l31.25,0l0,212.5ZM268.75,93.75l-31.25,0c-6.903,0 -12.5,5.594 -12.5,12.5l0,212.5c0,6.906 5.597,12.5 12.5,12.5l31.25,0c6.903,0 12.5,-5.594 12.5,-12.5l0,-212.5c0,-6.906 -5.597,-12.5 -12.5,-12.5ZM43.75,318.75l-31.25,0l0,-100l31.25,0l0,100ZM43.75,206.25l-31.25,0c-6.903,0 -12.5,5.594 -12.5,12.5l0,100c0,6.906 5.597,12.5 12.5,12.5l31.25,0c6.903,0 12.5,-5.594 12.5,-12.5l0,-100c0,-6.906 -5.597,-12.5 -12.5,-12.5Z" style="fill:#151b1e;fill-rule:nonzero;"/></svg>