<?xml version="1.0" standalone="no"?><!DOCTYPE svg PUBLIC "-//W3C//DTD SVG 1.1//EN" "http://www.w3.org/Graphics/SVG/1.1/DTD/svg11.dtd"><svg width="100%" height="100%" viewBox="0 0 332 332" version="1.1" xmlns="http://www.w3.org/2000/svg" xmlns:xlink="http://www.w3.org/1999/xlink" xml:space="preserve" style="fill-rule:evenodd;clip-rule:evenodd;stroke-linejoin:round;stroke-miterlimit:1.41421;"><path d="M268.75,137.5l0,-125l-256.25,0l0,237.5l218.75,0l0,68.75l87.5,0l0,-181.25l-50,0Z" style="fill:#fff;fill-rule:nonzero;"/><path d="M25,18.75c-3.453,0 -6.25,2.797 -6.25,6.25c0,3.453 2.797,6.25 6.25,6.25c3.453,0 6.25,-2.797 6.25,-6.25c0,-3.453 -2.797,-6.25 -6.25,-6.25Z" style="fill:#f37475;fill-rule:nonzero;"/><path d="M237.5,243.75l0,43.75l75,0l0,-43.75l-75,0ZM243.75,68.75l-68.75,0l0,118.75l50,0l0,-50c0,-3.45 2.797,-6.25 6.25,-6.25l12.5,0l0,-62.5ZM43.75,18.75c-3.453,0 -6.25,2.797 -6.25,6.25c0,3.45 2.797,6.25 6.25,6.25c3.453,0 6.25,-2.8 6.25,-6.25c0,-3.453 -2.797,-6.25 -6.25,-6.25Z" style="fill:#fec869;fill-rule:nonzero;"/><path d="M62.5,18.75c-3.453,0 -6.25,2.797 -6.25,6.25c0,3.453 2.797,6.25 6.25,6.25c3.453,0 6.25,-2.797 6.25,-6.25c0,-3.453 -2.797,-6.25 -6.25,-6.25Z" style="fill:#5ebf8a;fill-rule:nonzero;"/><path d="M237.5,168.75l0,68.75l75,0l0,-68.75l-75,0ZM37.5,225l125,0l0,-156.25l-125,0l0,156.25Z" style="fill:#73cbf3;fill-rule:nonzero;"/><path d="M300,275l-50,0l0,-6.25l50,0l0,6.25ZM284.375,262.5l-34.375,0l0,-6.25l34.375,0l0,6.25ZM206.25,168.75l-12.5,0l0,-6.25l12.5,0l0,6.25ZM206.25,150l-12.5,0l0,-6.25l12.5,0l0,6.25ZM207.037,131.25l-13.287,0l0,-6.25l15.844,0c-1.119,1.934 -1.988,4.034 -2.557,6.25ZM225,112.5l-31.25,0l0,-6.25l31.25,0l0,6.25ZM212.5,93.75l-18.75,0l0,-6.25l18.75,0l0,6.25Z" style="fill:#dcae5c;fill-rule:nonzero;"/><path d="M293.75,225l-43.75,0l0,-6.25l43.75,0l0,6.25ZM287.5,212.5l-37.5,0l0,-6.25l37.5,0l0,6.25ZM118.75,206.25l-62.5,0l0,-6.25l62.5,0l0,6.25ZM300,200l-50,0l0,-6.25l50,0l0,6.25ZM275,187.5l-25,0l0,-6.25l25,0l0,6.25ZM137.5,187.5l-81.25,0l0,-6.25l81.25,0l0,6.25ZM143.75,168.75l-87.5,0l0,-6.25l87.5,0l0,6.25ZM131.25,150l-75,0l0,-6.25l75,0l0,6.25ZM118.75,131.25l-62.5,0l0,-6.25l62.5,0l0,6.25ZM143.75,112.5l-87.5,0l0,-6.25l87.5,0l0,6.25ZM93.75,93.75l-37.5,0l0,-6.25l37.5,0l0,6.25Z" style="fill:#62b1d6;fill-rule:nonzero;"/><path d="M281.25,306.25l-12.5,0c-1.725,0 -3.125,1.4 -3.125,3.125c0,1.725 1.4,3.125 3.125,3.125l12.5,0c1.725,0 3.125,-1.4 3.125,-3.125c0,-1.725 -1.4,-3.125 -3.125,-3.125ZM231.25,156.25l0,6.25l87.5,0l0,-6.25l-87.5,0ZM231.25,300l87.5,0l0,-6.25l-87.5,0l0,6.25ZM268.75,37.5l-256.25,0l0,6.25l256.25,0l0,-6.25ZM275,150c1.725,0 3.125,-1.4 3.125,-3.125c0,-1.725 -1.4,-3.125 -3.125,-3.125c-1.725,0 -3.125,1.4 -3.125,3.125c0,1.725 1.4,3.125 3.125,3.125Z" style="fill:#151b1e;fill-rule:nonzero;"/><rect x="231.25" y="312.5" width="87.5" height="6.25" style="fill:#e5e5e5;fill-rule:nonzero;"/><path d="M218.75,250l-206.25,0l0,-6.25l193.75,0l0,-56.25l12.5,0l0,62.5ZM268.75,125l-25,0l0,-12.5l25,0l0,12.5Z" style="fill:#e5e5e5;fill-rule:nonzero;"/><path d="M218.75,187.5l-12.5,0l0,-18.75l12.5,0l0,-6.25l-12.5,0l0,-25c0,-2.159 0.272,-4.253 0.787,-6.25l5.463,0l0,-6.25l-2.906,0c4.322,-7.472 12.403,-12.5 21.656,-12.5l12.5,0l0,12.5l-12.5,0c-6.903,0 -12.5,5.597 -12.5,12.5l0,50Z" style="fill:#e5b45b;fill-rule:nonzero;"/><path d="M218.75,168.75l-12.5,0l0,-6.25l12.5,0l0,6.25ZM212.5,131.25l-5.463,0c0.569,-2.216 1.438,-4.316 2.557,-6.25l2.906,0l0,6.25Z" style="fill:#c69c54;fill-rule:nonzero;"/><path d="M318.75,318.75l-87.5,0l0,-181.25l87.5,0l0,181.25ZM218.75,137.5l0,112.5l-206.25,0l0,-237.5l256.25,0l0,112.5l-37.5,0c-6.903,0 -12.5,5.597 -12.5,12.5ZM318.75,125l-37.5,0l0,-112.5c0,-6.903 -5.597,-12.5 -12.5,-12.5l-256.25,0c-6.903,0 -12.5,5.597 -12.5,12.5l0,237.5c0,6.903 5.597,12.5 12.5,12.5l206.25,0l0,56.25c0,6.903 5.597,12.5 12.5,12.5l87.5,0c6.903,0 12.5,-5.597 12.5,-12.5l0,-181.25c0,-6.903 -5.597,-12.5 -12.5,-12.5Z" style="fill:#151b1e;fill-rule:nonzero;"/></svg>