<?xml version="1.0" standalone="no"?><!DOCTYPE svg PUBLIC "-//W3C//DTD SVG 1.1//EN" "http://www.w3.org/Graphics/SVG/1.1/DTD/svg11.dtd"><svg width="100%" height="100%" viewBox="0 0 332 332" version="1.1" xmlns="http://www.w3.org/2000/svg" xmlns:xlink="http://www.w3.org/1999/xlink" xml:space="preserve" style="fill-rule:evenodd;clip-rule:evenodd;stroke-linejoin:round;stroke-miterlimit:1.41421;"><rect x="62.5" y="62.5" width="256.25" height="256.25" style="fill:#efeff0;fill-rule:nonzero;"/><rect x="12.497" y="12.5" width="256.253" height="256.25" style="fill:#485762;fill-rule:nonzero;"/><path d="M12.497,12.5l0,25l256.253,0l0,-25l-256.253,0ZM12.497,268.75l90.628,0l0,-225l-90.628,0l0,225Z" style="fill:#fff;fill-rule:nonzero;"/><path d="M121.875,112.5l0,6.25l65.625,0l0,-6.25l-65.625,0ZM25,18.75c-3.453,0 -6.25,2.812 -6.25,6.25c0,3.437 2.797,6.25 6.25,6.25c3.45,0 6.25,-2.813 6.25,-6.25c0,-3.438 -2.8,-6.25 -6.25,-6.25Z" style="fill:#f37475;fill-rule:nonzero;"/><path d="M121.875,75l0,6.25l90.625,0l0,-6.25l-90.625,0ZM43.75,18.75c-3.453,0 -6.25,2.812 -6.25,6.25c0,3.437 2.797,6.25 6.25,6.25c3.45,0 6.25,-2.813 6.25,-6.25c0,-3.438 -2.8,-6.25 -6.25,-6.25Z" style="fill:#fec869;fill-rule:nonzero;"/><path d="M121.875,56.25l0,6.25l40.625,0l0,-6.25l-40.625,0ZM62.5,18.75c-3.453,0 -6.25,2.812 -6.25,6.25c0,3.437 2.797,6.25 6.25,6.25c3.45,0 6.25,-2.813 6.25,-6.25c0,-3.438 -2.8,-6.25 -6.25,-6.25Z" style="fill:#5ebf8a;fill-rule:nonzero;"/><rect x="121.875" y="168.75" width="40.625" height="6.25" style="fill:#73cbf3;fill-rule:nonzero;"/><path d="M209.375,243.75l-87.5,0l0,-6.25l87.5,0l0,6.25ZM253.125,225l-131.25,0l0,-6.25l131.25,0l0,6.25ZM234.375,206.25l-112.5,0l0,-6.25l112.5,0l0,6.25ZM171.875,190.625l-50,0l0,-6.25l50,0l0,6.25ZM203.122,156.25l-81.247,0l0,-6.25l81.247,0l0,6.25ZM184.372,137.5l-62.497,0l0,-6.25l62.497,0l0,6.25ZM221.872,100l-99.997,0l0,-6.25l99.997,0l0,6.25Z" style="fill:#637079;fill-rule:nonzero;"/><rect x="153.125" y="281.25" width="6.25" height="37.5" style="fill:#cbcbcb;fill-rule:nonzero;"/><path d="M56.25,175l-31.25,0l0,-6.25l31.25,0l0,6.25ZM75,156.25l-50,0l0,-6.25l50,0l0,6.25ZM90.622,137.5l-65.622,0l0,-6.25l65.622,0l0,6.25ZM68.75,118.75l-43.75,0l0,-6.25l43.75,0l0,6.25ZM56.25,100l-31.25,0l0,-6.25l31.25,0l0,6.25ZM81.25,81.25l-56.25,0l0,-6.25l56.25,0l0,6.25ZM50,62.5l-25,0l0,-6.25l25,0l0,6.25Z" style="fill:#d9d9d9;fill-rule:nonzero;"/><path d="M12.497,37.5l0,6.25l90.628,0l0,225l6.247,0l0,-225l159.378,0l0,-6.25l-256.253,0Z" style="fill:#151b1e;fill-rule:nonzero;"/><rect x="12.497" y="262.5" width="90.628" height="6.25" style="fill:#e5e5e5;fill-rule:nonzero;"/><rect x="109.372" y="262.5" width="159.378" height="6.25" style="fill:#414e57;fill-rule:nonzero;"/><path d="M318.75,318.75l-256.25,0l0,-37.5l206.25,0c6.903,0 12.5,-5.594 12.5,-12.5l0,-206.25l37.5,0l0,256.25ZM12.5,268.75l0,-256.25l256.25,0l0,256.25l-256.25,0ZM318.75,50l-37.5,0l0,-37.5c0,-6.906 -5.597,-12.5 -12.5,-12.5l-256.25,0c-6.906,0 -12.5,5.594 -12.5,12.5l0,256.25c0,6.906 5.594,12.5 12.5,12.5l37.5,0l0,37.5c0,6.906 5.594,12.5 12.5,12.5l256.25,0c6.903,0 12.5,-5.594 12.5,-12.5l0,-256.25c0,-6.903 -5.597,-12.5 -12.5,-12.5Z" style="fill:#151b1e;fill-rule:nonzero;"/></svg>